<?xml version="1.0" standalone="no"?><!DOCTYPE svg PUBLIC "-//W3C//DTD SVG 1.1//EN" "http://www.w3.org/Graphics/SVG/1.1/DTD/svg11.dtd"><svg class="icon" width="200px" height="200.00px" viewBox="0 0 1024 1024" version="1.1" xmlns="http://www.w3.org/2000/svg"><path d="M550.3522731 828.40625a28.76420462 28.76420462 0 0 1-57.52840923 0V370.90198887a41.84232962 41.84232962 0 0 0-1.34232962 1.11221575l-2.20525599 2.03267038-206.22017038 206.23934674a28.76420462 28.76420462 0 0 1-42.55184675-38.63991522l1.86008562-2.05184592 206.23934673-206.2201712c38.7741481-38.7741481 101.4992894-38.7741481 142.11434592-1.24644865l3.06818235 2.953125L797.68607962 540.38068152a28.76420462 28.76420462 0 0 1-38.7741481 42.41761386l-2.05184592-1.87926114-203.78480136-205.22301114-2.68465924-2.4928981L550.3522731 828.40625zM770.87784076 166.82954538a28.76420462 28.76420462 0 0 1-1e-8 57.52840924h-498.57954537a28.76420462 28.76420462 0 0 1 0-57.52840924h498.57954537z" /></svg>