<?xml version="1.0" standalone="no"?><!DOCTYPE svg PUBLIC "-//W3C//DTD SVG 1.1//EN" "http://www.w3.org/Graphics/SVG/1.1/DTD/svg11.dtd"><svg class="icon" width="200px" height="200.00px" viewBox="0 0 1024 1024" version="1.1" xmlns="http://www.w3.org/2000/svg"><path d="M833.60877323 679.73906423a25.13918765 25.13918765 0 0 0 0-49.8449417h-57.21332448l77.15130076-102.72392268a24.70575338 24.70575338 0 0 0-38.57565039-29.47353114l-86.68685494 116.16038609-86.68685495-116.16038609a24.70575338 24.70575338 0 0 0-34.67474183-5.20121138 25.13918765 25.13918765 0 0 0-5.20121138 34.67474252l77.15130074 102.72392268h-59.81392948a25.13918765 25.13918765 0 0 0 0 49.8449417h82.35251213V727.85026878h-82.35251213a25.13918765 25.13918765 0 0 0-24.70575404 24.70575338 24.70575338 24.70575338 0 0 0 24.70575404 24.70575405h82.35251213v58.08019304a25.13918765 25.13918765 0 0 0 49.84494169 0v-58.94706161h82.35251212a25.13918765 25.13918765 0 0 0 0-49.84494169h-82.35251212v-46.81090172z m-221.91834873-366.25196177a24.27231908 24.27231908 0 0 0-24.27231977-25.13918832H290.08219239a25.13918765 25.13918765 0 0 0-1e-8 49.4115074h296.90247808a24.70575338 24.70575338 0 0 0 24.70575404-24.70575335zM561.41204853 462.1550583a24.27231908 24.27231908 0 0 0-24.70575405-24.70575335H290.08219239a24.27231908 24.27231908 0 0 0-24.70575338 24.70575335 24.70575338 24.70575338 0 0 0 24.70575337 24.70575406h246.6241021a24.70575338 24.70575338 0 0 0 24.70575405-24.70575406zM290.08219239 586.11726077a24.70575338 24.70575338 0 1 0-1e-8 49.41150743h148.66795651a24.70575338 24.70575338 0 0 0 0-49.41150742zM537.13972876 759.49097067H238.93694784a24.70575338 24.70575338 0 0 1-24.70575337-24.70575338V238.93640672a24.70575338 24.70575338 0 0 1 24.70575337-24.70575335h397.8926643a24.27231908 24.27231908 0 0 1 24.70575405 24.70575335V437.44930495a25.13918765 25.13918765 0 0 0 24.70575337 24.70575335 24.70575338 24.70575338 0 0 0 24.70575337-24.70575335V214.23065337A49.8449417 49.8449417 0 0 0 661.5353662 164.38571167H214.23119448A49.8449417 49.8449417 0 0 0 164.81968707 214.23065337v545.26031729a49.8449417 49.8449417 0 0 0 49.4115074 49.8449417h322.90853429a25.13918765 25.13918765 0 0 0 24.70575404-25.13918766 25.13918765 25.13918765 0 0 0-24.70575404-24.70575404z" /></svg>