<?xml version="1.0" standalone="no"?><!DOCTYPE svg PUBLIC "-//W3C//DTD SVG 1.1//EN" "http://www.w3.org/Graphics/SVG/1.1/DTD/svg11.dtd"><svg class="icon" width="200px" height="200.00px" viewBox="0 0 1024 1024" version="1.1" xmlns="http://www.w3.org/2000/svg"><path d="M267.729455 721.454545m69.818181 0l0 0q69.818182 0 69.818182 69.818182l0 46.545455q0 69.818182-69.818182 69.818182l0 0q-69.818182 0-69.818181-69.818182l0-46.545455q0-69.818182 69.818181-69.818182Z" fill="#78B1EF" opacity=".8" /><path d="M616.890182 721.454545m69.818182 0l0 0q69.818182 0 69.818181 69.818182l0 46.545455q0 69.818182-69.818181 69.818182l0 0q-69.818182 0-69.818182-69.818182l0-46.545455q0-69.818182 69.818182-69.818182Z" fill="#78B1EF" opacity=".8" /><path d="M163.025455 116.363636m93.090909 0l512 0q93.090909 0 93.090909 93.090909l0 512q0 93.090909-93.090909 93.09091l-512 0q-93.090909 0-93.090909-93.09091l0-512q0-93.090909 93.090909-93.090909Z" fill="#1C7BF2" opacity=".8" /><path d="M267.752727 249.949091m46.545455 0l395.636363 0q46.545455 0 46.545455 46.545454l0 232.727273q0 46.545455-46.545455 46.545455l-395.636363 0q-46.545455 0-46.545455-46.545455l0-232.727273q0-46.545455 46.545455-46.545454Z" fill="#FFFFFF" /><path d="M289.792 673.815273m-59.275636 0a59.275636 59.275636 0 1 0 118.551272 0 59.275636 59.275636 0 1 0-118.551272 0Z" fill="#FFFFFF" /><path d="M734.417455 673.815273m-59.275637 0a59.275636 59.275636 0 1 0 118.551273 0 59.275636 59.275636 0 1 0-118.551273 0Z" fill="#FFFFFF" /><path d="M663.389091 209.012364h-302.545455a23.272727 23.272727 0 0 1-23.272727-23.272728 23.272727 23.272727 0 0 1 23.272727-23.272727h302.545455a23.272727 23.272727 0 0 1 23.272727 23.272727 23.272727 23.272727 0 0 1-23.272727 23.272728z" fill="#FFFFFF" /><path d="M815.825455 249.949091m46.545454 0l0 0q46.545455 0 46.545455 46.545454l0 93.09091q0 46.545455-46.545455 46.545454l0 0q-46.545455 0-46.545454-46.545454l0-93.09091q0-46.545455 46.545454-46.545454Z" fill="#78B1EF" opacity=".8" /><path d="M116.48 247.365818m46.545455 0l0 0q46.545455 0 46.545454 46.545455l0 93.090909q0 46.545455-46.545454 46.545454l0 0q-46.545455 0-46.545455-46.545454l0-93.090909q0-46.545455 46.545455-46.545455Z" fill="#78B1EF" opacity=".8" /></svg>