<?xml version="1.0" standalone="no"?><!DOCTYPE svg PUBLIC "-//W3C//DTD SVG 1.1//EN" "http://www.w3.org/Graphics/SVG/1.1/DTD/svg11.dtd"><svg class="icon" width="200px" height="200.00px" viewBox="0 0 1024 1024" version="1.1" xmlns="http://www.w3.org/2000/svg"><path d="M663.01936906 459.75574156c24.91047094 24.89416219 65.27990062 24.89416219 90.18941156 0l99.19386657-99.19386656c24.91047094-24.89416219 24.91047094-65.27894063 0-90.17406187L753.20878062 171.19394656c-24.90951094-24.92486063-65.27894063-24.92486063-90.18941156 0L563.8245425 270.38781312c-24.89416219 24.89416219-24.89416219 65.27894063 0 90.17406188L663.01936906 459.75574156zM600.95904594 299.20283656l90.89165531-90.8743875c9.11478-9.1483575 23.92138125-9.1483575 33.03808031 0l90.8743875 90.8743875c9.13300781 9.11669906 9.13300781 23.90603156 0 33.02177156l-90.8743875 90.90604594c-9.11669906 9.11669906-23.92330031 9.11669906-33.03808031 0l-90.89165531-90.90604594C591.84234688 323.10982719 591.84234688 308.31953562 600.95904594 299.20283656zM789.91253563 544.16027562L626.71470312 544.16027562c-45.0548925 0-81.58404563 36.52819406-81.58404562 81.59939532l0 163.19879156c0 45.03858375 36.52915313 81.59939531 81.58404563 81.59939531l163.19783156 0c45.06928312 0 81.59939531-36.5598525 81.59939531-81.59939531L871.51193094 625.75871187C871.51193094 580.68846875 834.98277781 544.16027562 789.91253563 544.16027562zM822.56783469 788.9575025c0 18.00891-14.61473156 32.63899031-32.6553 32.63899031L626.71470312 821.59649375c-18.00986906 0-32.63995031-14.63008125-32.63995031-32.63899031L594.07475375 625.75871187c0-18.04056844 14.63008125-32.63899031 32.63995031-32.63899031l163.19783157 0c18.04056844 0 32.6553 14.59938187 32.6553 32.63899031L822.56783469 788.9575025zM398.25136156 544.16027562L235.03818031 544.16027562c-45.0548925 0-81.59172094 36.52819406-81.59172093 81.59939532l0 163.19879156c0 45.03858375 36.53682844 81.59939531 81.59172093 81.59939531l163.21318125 0c45.0548925 0 81.58404563-36.5598525 81.58404563-81.59939531L479.83540719 625.75871187C479.83540719 580.68846875 443.30625406 544.16027562 398.25136156 544.16027562zM430.87596219 788.9575025c0 18.00891-14.60609719 32.63899031-32.62460063 32.63899031L235.03818031 821.59649375c-18.01658438 0-32.633235-14.63008125-32.633235-32.63899031L202.40494531 625.75871187c0-18.04056844 14.61569063-32.63899031 32.633235-32.63899031l163.21318125 0c18.01850344 0 32.62460062 14.59938187 32.62460063 32.63899031L430.87596219 788.9575025zM398.25136156 152.48375187L235.03818031 152.48375187c-45.0548925 0-81.59172094 36.52819406-81.59172093 81.59939532l0 163.19879156c0 45.03954281 36.53682844 81.59939531 81.59172093 81.59939531l163.21318125 0c45.0548925 0 81.58404563-36.5598525 81.58404563-81.59939531L479.83540719 234.08314719C479.83540719 189.01194594 443.30625406 152.48375187 398.25136156 152.48375187zM430.87596219 397.28193875c0 18.00986906-14.60609719 32.63995031-32.62460063 32.63995031L235.03818031 429.92188906c-18.01658438 0-32.633235-14.63008125-32.633235-32.63995031L202.40494531 234.08314719c0-18.04056844 14.61569063-32.63899031 32.633235-32.63899031l163.21318125 0c18.01850344 0 32.62460062 14.59842187 32.62460063 32.63899031L430.87596219 397.28193875z" /></svg>