<?xml version="1.0" standalone="no"?><!DOCTYPE svg PUBLIC "-//W3C//DTD SVG 1.1//EN" "http://www.w3.org/Graphics/SVG/1.1/DTD/svg11.dtd"><svg class="icon" width="200px" height="200.00px" viewBox="0 0 1024 1024" version="1.1" xmlns="http://www.w3.org/2000/svg"><path d="M511.69583749 555.37914009L381.25697048 555.37914009 381.25697048 598.79019008 548.58979851 598.79019008 548.58979851 598.5919413 554.70020593 598.5919413 554.70020593 424.98304591 511.69583749 424.98304591ZM511.69583749 283.25214598c-150.64666328 0-272.76790793 122.16401752-272.76790793 272.8147544 0 73.81372154 29.31977157 140.78107104 76.94496587 189.89381008l-64.46479821 64.4647982 32.01581911 32.01581911 66.62652455-66.62652456c45.23874074 33.34041964 101.14014242 53.04784141 161.64539661 53.04784141 60.00420079 0 115.48194755-19.37745977 160.51972378-52.21478919l68.17449444 68.17449442 32.0158191-32.0158191-65.85050281-65.85050281c48.19617793-49.20100048 77.91244704-116.57571048 77.91244705-190.88844862C784.46781905 405.41684246 662.34657436 283.25214598 511.69583749 283.25214598zM511.69583749 785.39456416c-126.07060465 0-228.27192116-102.43758559-228.27192116-228.78994792s102.2013165-228.78994793 228.27192117-228.78994793c126.07467826 0 228.27192116 102.43758559 228.27192115 228.78994793S637.77051576 785.39456416 511.69583749 785.39456416zM322.67921036 179.97607672c-33.42664428 0-67.09906273 10.6640188-95.58646102 32.69679006-68.33540183 52.85230838-80.88685758 151.09408088-28.03454922 219.42880377l247.46403192-191.39425456C415.70201599 200.85873351 369.4367268 179.97607672 322.67921036 179.97607672zM213.66750532 365.87028567c-3.79863661-14.07091041-4.83876373-28.89000625-2.93571129-43.7831059 3.82443611-29.93217017 19.07533408-56.58305157 42.94462222-75.04395024 19.97560076-15.44982567 43.8367417-23.61604571 69.00279411-23.61604571 16.92379173 0 33.90325605 3.85430921 49.10255502 11.14674099 2.36812235 1.13653578 4.68464569 2.34775432 6.9488911 3.63297667L213.66750532 365.87028567zM797.52508075 214.04906631c-28.48671936-22.03277126-62.15981674-32.69679006-95.58646102-32.69679006-46.75819538 0-93.02348457 20.88333573-123.84302169 60.73133928l247.46403191 191.39425456C878.41193833 365.14246827 865.86048258 266.90069576 797.52508075 214.04906631zM810.95032477 367.24716414l-165.06315116-127.66338419c2.26424541-1.28522235 4.58076876-2.4964409 6.94889109-3.63297667 15.19929897-7.29243177 32.1787633-11.14674098 49.10255504-11.14674098 25.16605239 0 49.02651441 8.16622004 69.0027941 23.61604571 23.86928815 18.46089865 39.12086506 45.11178006 42.94462222 75.04395022C815.7890885 338.35715789 814.74964031 353.17625374 810.95032477 367.24716414z" /></svg>