<?xml version="1.0" standalone="no"?><!DOCTYPE svg PUBLIC "-//W3C//DTD SVG 1.1//EN" "http://www.w3.org/Graphics/SVG/1.1/DTD/svg11.dtd"><svg class="icon" width="200px" height="200.00px" viewBox="0 0 1024 1024" version="1.1" xmlns="http://www.w3.org/2000/svg"><path d="M838.82128906 327.61096191h-247.76916504V186.80194092c0-8.94012451-7.24273682-16.18286133-16.18286132-16.18286133H185.52478027c-8.94012451 0-16.18286133 7.24273682-16.18286132 16.18286133v651.94519043c0 8.94012451 7.24273682 16.18286133 16.18286133 16.18286133h653.30474853c8.94012451 0 16.18286133-7.24273682 16.18286132-16.18286133V343.79382324c0-8.93188477-7.25097656-16.18286133-16.19110107-16.18286132z m-616.74499512 474.58465577v-578.84216309h316.24969483v578.84216309H222.07629394z m580.20172119 0H591.05212403V380.34533691h211.21765136v421.85028077zM450.54797363 380.72436523H302.33142089c-4.90264893 0-8.87420654-3.97155762-8.87420654-8.87420654v-34.97772217c0-4.90264893 3.97155762-8.87420654 8.87420655-8.87420654h148.21655273c4.90264893 0 8.87420654 3.97155762 8.87420655 8.87420654v34.97772217c0.00823974 4.90264893-3.97155762 8.87420654-8.87420654 8.87420654zM450.54797363 538.83685302H302.33142089c-4.90264893 0-8.87420654-3.97155762-8.87420654-8.87420654v-34.97772216c0-4.90264893 3.97155762-8.87420654 8.87420655-8.87420655h148.21655273c4.90264893 0 8.87420654 3.97155762 8.87420655 8.87420655v34.97772216c0.00823974 4.89440918-3.97155762 8.87420654-8.87420654 8.87420654zM450.54797363 697.13061523H302.33142089c-4.90264893 0-8.87420654-3.97155762-8.87420654-8.87420654v-34.97772217c0-4.90264893 3.97155762-8.87420654 8.87420655-8.87420654h148.21655273c4.90264893 0 8.87420654 3.97155762 8.87420655 8.87420654v34.97772217c0.00823974 4.90264893-3.97155762 8.87420654-8.87420654 8.87420654z" /></svg>