<?xml version="1.0" standalone="no"?><!DOCTYPE svg PUBLIC "-//W3C//DTD SVG 1.1//EN" "http://www.w3.org/Graphics/SVG/1.1/DTD/svg11.dtd"><svg class="icon" width="200px" height="200.00px" viewBox="0 0 1024 1024" version="1.1" xmlns="http://www.w3.org/2000/svg"><path d="M634.76397705 418.56951904c-42.9208374 0-79.24987793 28.78967286-90.68664551 68.06854249H179.25433349c-4.58129883 0-8.28918458 3.70788575-8.28918456 8.28918456v36.15600586c0 4.58129883 3.70788575 8.28918458 8.28918456 8.28918458h364.82299805c11.43676758 39.27886963 47.75756836 68.06854248 90.68664551 68.06854248s79.24987793-28.78967286 90.68664551-68.06854249h121.12426757c4.58129883 0 8.28918458-3.70788575 8.28918458-8.28918457v-36.15600586c0-4.58129883-3.70788575-8.28918458-8.28918458-8.28918457h-121.12426757c-11.44500732-39.27886963-47.7658081-68.06854248-90.68664551-68.06854248z m0 136.13708497c-22.99713135 0-41.70135498-18.70422364-41.70135498-41.70135499s18.70422364-41.70135498 41.70135498-41.70135498 41.70135498 18.70422364 41.70135498 41.70135498-18.71246338 41.70135498-41.70135498 41.70135499zM353.22833252 628.55120849c-42.9208374 0-79.24987793 28.78967286-90.68664551 68.06854249H179.25433349c-4.58129883 0-8.28918458 3.70788575-8.28918456 8.28918457V741.06494141c0 4.58129883 3.70788575 8.28918458 8.28918456 8.28918457h83.28735352c11.43676758 39.27886963 47.75756836 68.06854248 90.68664551 68.06854248s79.24987793-28.78967286 90.68664551-68.06854249h402.6599121c4.58129883 0 8.28918458-3.70788575 8.28918458-8.28918456v-36.15600586c0-4.58129883-3.70788575-8.28918458-8.28918458-8.28918458H443.91497802c-11.44500732-39.27886963-47.7658081-68.06854248-90.6866455-68.06854248z m0 136.13708497c-22.99713135 0-41.70135498-18.70422364-41.70135499-41.70135499s18.70422364-41.70135498 41.70135499-41.70135498 41.70135498 18.70422364 41.70135498 41.70135498-18.71246338 41.70135498-41.70135498 41.70135499zM443.91497802 274.86834717c-11.43676758-39.27886963-47.75756836-68.06854248-90.6866455-68.06854248s-79.24987793 28.78967286-90.68664551 68.06854248H179.25433349c-4.58129883 0-8.28918458 3.70788575-8.28918456 8.28918457v36.15600586c0 4.58129883 3.70788575 8.28918458 8.28918456 8.28918457h83.28735352c11.43676758 39.27886963 47.75756836 68.06854248 90.68664551 68.06854247s79.24987793-28.78967286 90.68664551-68.06854247h402.6599121c4.58129883 0 8.28918458-3.70788575 8.28918458-8.28918457v-36.15600586c0-4.58129883-3.70788575-8.28918458-8.28918458-8.28918457H443.91497802z m-90.6866455 68.06854247c-22.99713135 0-41.70135498-18.70422364-41.70135499-41.70135497s18.70422364-41.70135498 41.70135499-41.70135498 41.70135498 18.70422364 41.70135498 41.70135498-18.71246338 41.70135498-41.70135498 41.70135497z" /></svg>