<?xml version="1.0" standalone="no"?><!DOCTYPE svg PUBLIC "-//W3C//DTD SVG 1.1//EN" "http://www.w3.org/Graphics/SVG/1.1/DTD/svg11.dtd"><svg class="icon" width="200px" height="200.00px" viewBox="0 0 1024 1024" version="1.1" xmlns="http://www.w3.org/2000/svg"><path d="M216.24804687 880.26171875c-15.53027344 0-28.125-12.59472656-28.12499999-28.125V646.24414063c0-15.53027344 12.59472656-28.125 28.125-28.12500001s28.125 12.59472656 28.125 28.125V852.13671875c0 15.53027344-12.59472656 28.125-28.125 28.125zM413.41308594 880.26171875c-15.53027344 0-28.125-12.59472656-28.125-28.125V541.52246094c0-15.53027344 12.59472656-28.125 28.125-28.125s28.125 12.59472656 28.125 28.125V852.13671875c0 15.53027344-12.5859375 28.125-28.125 28.125zM610.58691406 880.26171875c-15.53027344 0-28.125-12.59472656-28.125-28.125V593.55371094c0-15.53027344 12.59472656-28.125 28.125-28.125s28.125 12.59472656 28.125 28.125V852.13671875c0 15.53027344-12.59472656 28.125-28.125 28.125zM807.75195313 880.26171875c-15.53027344 0-28.125-12.59472656-28.12500001-28.125V497.9375c0-15.53027344 12.59472656-28.125 28.125-28.125s28.125 12.59472656 28.125 28.125v354.19921875c0 15.53027344-12.59472656 28.125-28.125 28.125zM210.93945312 518.15234375c-7.22460938 0-14.44042969-2.75976563-19.93359374-8.28808594-10.95996094-11.01269531-10.91601563-28.81933594 0.09667968-39.77050781l202.06054688-201.06738281c9.65917969-9.61523438 24.8203125-10.91601563 35.98242187-3.09375L576.3359375 369.125l176.61621094-171.72949219c11.13574219-10.828125 28.94238281-10.58203125 39.77050781 0.55371094s10.58203125 28.94238281-0.55371094 39.77050781L598.85351563 425.68261719c-9.68554688 9.41308594-24.68847656 10.6171875-35.75390626 2.86523437L416.12890625 325.51367187l-185.36132813 184.45605469c-5.484375 5.45800781-12.65625 8.18261719-19.82812499 8.18261719zM813.02539063 298.75976562c-14.23828125 0-26.45507813-10.77539063-27.94042969-25.24218749l-6.50390625-63.14941407-72.6328125 0.02636719h-0.00878907c-15.53027344 0-28.11621094-12.5859375-28.125-28.11621094-0.00878906-15.53027344 12.5859375-28.125 28.11621094-28.13378906l98.015625-0.03515625h0.00878907c14.4140625 0 26.49902344 10.8984375 27.97558593 25.2421875l9.10546875 88.40917969c1.59082031 15.45117188-9.64160156 29.26757813-25.09277343 30.85839843-0.97558594 0.08789063-1.95117187 0.140625-2.91796875 0.140625z" /></svg>