<?xml version="1.0" standalone="no"?><!DOCTYPE svg PUBLIC "-//W3C//DTD SVG 1.1//EN" "http://www.w3.org/Graphics/SVG/1.1/DTD/svg11.dtd"><svg class="icon" width="200px" height="143.32px" viewBox="0 0 1429 1024" version="1.1" xmlns="http://www.w3.org/2000/svg"><path d="M950.87979506 271.54360962c-36.41993523 0-66.13168717 28.75156403-66.13168718 64.53266145 0 15.22859573 5.53865433 28.96631241 14.48392869 39.9347019l-72.0952034 77.0993042c-9.90314484-5.96351623-21.61774636-9.58411216-34.18361665-9.58411216-17.57074356 0-33.54477883 6.81555748-45.57841301 17.99715042l-69.21927451-56.33359909c5.11224746-9.05187608 7.98740388-19.38142777 7.98740387-30.13738632 0-35.56789398-29.71097947-64.53343391-66.13168716-64.53343392s-66.13014221 28.7523365-66.13014222 64.53343392c0 13.63111496 4.36603547 26.19698525 11.71382904 36.41993522l-62.8301239 64.74663734c-10.43615342-7.02798843-23.42765808-10.96916198-36.95217132-10.96916198-36.41993523 0-66.13091469 28.75310898-66.1309147 64.53420639 0 35.56789398 29.49777603 64.53343391 66.13168717 64.53343392 36.41916275 0 66.13014221-28.7523365 66.13014222-64.53266144 0-14.48392868-5.11147499-27.7952385-13.20470811-38.33799362l62.51031877-64.42683221c10.96916198 7.88080215 24.27969932 12.56587028 38.86945724 12.5658703 17.25093842 0 32.7993393-6.60235405 44.61977005-17.25093842l69.6449089 56.54680251c-4.68584061 8.94527436-7.45439529 18.63521576-7.45439529 29.2845726 0 35.56789398 29.71097947 64.53343391 66.13091468 64.53343392s66.13091469-28.7523365 66.13091469-64.53266143c0-15.54840088-5.96351623-29.71175194-15.33442496-40.78674316l71.66802406-76.78027154c9.90314484 6.28332139 22.14998245 10.11712074 35.24808883 10.11712074 36.42070771 0 66.13168717-28.75310898 66.13168716-64.53420639 0.10660171-35.6744957-29.60437774-64.64003562-66.02431297-64.64003563z m-1e-8 0M1065.25107574 116.91782188H351.54795836c-43.76850128 0-79.22979355 42.59665489-79.22979357 86.15195275v460.25367737c0 43.76850128 35.56866646 79.33639526 79.33639528 79.33639526h234.28044318v113.09360504H394.46364592c-13.9509201 0-25.344944 11.28742219-25.34494402 25.34494401 0 13.95014763 11.3940239 25.344944 25.34494401 25.34494399H1022.44198987c13.9509201 0 25.344944-11.28819466 25.344944-25.34494399 0-13.9509201-11.28819466-25.344944-25.344944-25.34494401H830.97063252V742.76644898h234.28044319c43.7677288 0 79.33562278-35.56866646 79.3356228-79.33639526V203.17560387C1144.6940727 159.51524925 1109.12540624 116.91782188 1065.25107574 116.91782188zM780.38657379 855.64685059H636.62411877V742.65984726h143.76322748v112.98700332z m313.50946424-192.21679688c0 15.65423012-12.77907371 28.64650726-28.64573479 28.64650726H351.54795836c-15.65423012 0-28.64650726-12.77907371-28.64650725-28.64650725V203.28220558c0-15.65423012 12.77907371-28.64573479 28.64650725-28.64573478h713.80971908c15.65423012 0 28.64573479 12.77907371 28.64573479 28.64573478v460.14862061z m0 1e-8" /></svg>