<?xml version="1.0" standalone="no"?><!DOCTYPE svg PUBLIC "-//W3C//DTD SVG 1.1//EN" "http://www.w3.org/Graphics/SVG/1.1/DTD/svg11.dtd"><svg class="icon" width="200px" height="200.00px" viewBox="0 0 1024 1024" version="1.1" xmlns="http://www.w3.org/2000/svg"><path d="M553.70135804 634.12667613H597.2889309c6.5177679 0 10.91726124-4.48096543 10.91726126-11.28388568V577.78871981c0-6.76218421-4.3587573-11.24314964-10.91726126-11.24314965H553.70135804c-6.55850396 0-10.91726124 4.48096543-10.91726125 11.24314964v45.05407065c0 6.76218421 4.3587573 11.28388568 10.91726125 11.28388568z m0-112.63517662H597.2889309c6.5177679 0 10.91726124-4.48096543 10.91726126-11.28388569V465.15354317c0-6.76218421-4.3587573-11.24314964-10.91726126-11.24314964H553.70135804c-6.55850396 0-10.91726124 4.48096543-10.91726125 11.24314964v45.05407065c0 6.76218421 4.3587573 11.28388568 10.91726125 11.2838857z m109.09114033 1e-8h43.66904496c6.5177679 0 10.91726124-4.48096543 10.91726125-11.2838857V465.15354317c0-6.76218421-4.39949333-11.24314964-10.91726125-11.24314964h-43.66904496c-6.5177679 0-10.91726124 4.48096543-10.91726124 11.24314964v45.05407065c0 6.76218421 4.39949333 11.28388568 10.91726124 11.2838857z m-218.22301671 0h43.66904498c6.5177679 0 10.8765252-4.48096543 10.87652519-11.2838857V465.15354317c0-6.76218421-4.3587573-11.24314964-10.87652519-11.24314964H444.5287456c-6.5177679 0-10.91726124 4.48096543-10.91726124 11.24314964v45.05407065c0 6.76218421 4.3587573 11.28388568 10.91726124 11.2838857z m218.22301671 112.63517661h43.66904496c6.5177679 0 10.91726124-4.48096543 10.91726125-11.28388568V577.78871981c0-6.76218421-4.39949333-11.24314964-10.91726125-11.24314965h-43.66904496c-6.5177679 0-10.91726124 4.48096543-10.91726124 11.24314964v45.05407065c0 6.76218421 4.39949333 11.28388568 10.91726124 11.28388568z m0 112.63517664h43.66904496c6.5177679 0 10.91726124-4.48096543 10.91726125-11.28388569V690.42389643c0-6.76218421-4.39949333-11.24314964-10.91726125-11.24314964h-43.66904496c-6.5177679 0-10.91726124 4.48096543-10.91726124 11.24314964v45.05407065c0 6.76218421 4.39949333 11.28388568 10.91726124 11.28388569z m-109.09114033 0H597.2889309c6.5177679 0 10.91726124-4.48096543 10.91726126-11.28388569V690.42389643c0-6.76218421-4.3587573-11.24314964-10.91726126-11.24314964H553.70135804c-6.55850396 0-10.91726124 4.48096543-10.91726125 11.24314964v45.05407065c0 6.76218421 4.3587573 11.28388568 10.91726125 11.28388569z m-218.22301672 0h43.62830893c6.5177679 0 10.91726124-4.48096543 10.91726124-11.28388569V690.42389643c0-6.76218421-4.3587573-11.24314964-10.91726124-11.24314964H335.47834132c-6.55850396 0-10.91726124 4.48096543-10.91726123 11.24314964v45.05407065c0 6.76218421 4.3587573 11.28388568 10.91726124 11.28388569z m1e-8-112.63517664h43.62830892c6.5177679 0 10.91726124-4.48096543 10.91726124-11.28388568V577.78871981c0-6.76218421-4.3587573-11.24314964-10.91726124-11.24314965H335.47834132c-6.55850396 0-10.91726124 4.48096543-10.91726123 11.24314964v45.05407065c0 6.76218421 4.3587573 11.28388568 10.91726124 11.28388568zM782.841636 239.88318992h-87.2973539V217.35615459c0-11.24314964-8.71751457-22.52703532-21.8345225-22.52703533-13.07627186 0-21.83452249 9.00266692-21.83452248 22.52703534v22.52703532H390.02391149V217.35615459c0-11.24314964-8.71751457-22.52703532-21.83452248-22.52703533-13.07627186 0-21.83452249 9.00266692-21.83452249 22.52703534v22.52703532H259.09824868c-24.03426916 0-43.66904497 20.28655261-43.66904498 45.05407064v495.59477718c0 24.8082541 19.63477582 45.05407066 43.66904498 45.05407064h523.74338732c24.03426916 0 43.62830892-20.24581657 43.62830891-45.05407064V284.93726056c0-24.76751804-19.63477582-45.05407066-43.62830891-45.05407065z m-1e-8 518.16254854c0 13.48363237-8.75825063 22.48629927-21.83452249 22.48629928H280.89203511c-13.07627186 0-21.79378644-9.00266692-21.79378643-22.52703533V408.85632288h523.74338732v349.14867954z m0-394.24348622H259.09824868V307.46429589c0-13.48363237 8.71751457-22.52703532 21.79378644-22.52703533H346.35486652v22.52703534c0 11.28388568 8.75825063 22.52703532 21.83452249 22.52703532 13.11700791 0 21.83452249-8.96193087 21.83452248-22.52703532v-22.52703534h261.85132563v22.52703534c0 11.28388568 8.75825063 22.52703532 21.83452248 22.52703532 13.11700791 0 21.83452249-8.96193087 21.8345225-22.52703532v-22.52703534h65.46283141c13.07627186 0 21.83452249 9.04340298 21.83452248 22.52703534v56.33795634zM335.47834132 521.49149952h43.62830893c6.5177679 0 10.91726124-4.48096543 10.91726124-11.2838857V465.15354317c0-6.76218421-4.3587573-11.24314964-10.91726124-11.24314964H335.47834132c-6.55850396 0-10.91726124 4.48096543-10.91726123 11.24314964v45.05407065c0 6.76218421 4.3587573 11.28388568 10.91726124 11.2838857z m109.09114035 112.63517661h43.66904496c6.5177679 0 10.8765252-4.48096543 10.8765252-11.28388568V577.78871981c0-6.76218421-4.3587573-11.24314964-10.8765252-11.24314965H444.5287456c-6.5177679 0-10.91726124 4.48096543-10.91726124 11.24314964v45.05407065c0 6.76218421 4.3587573 11.28388568 10.91726124 11.28388568z m-1e-8 112.63517664h43.66904497c6.5177679 0 10.8765252-4.48096543 10.8765252-11.28388569V690.42389643c0-6.76218421-4.3587573-11.24314964-10.8765252-11.24314964H444.5287456c-6.5177679 0-10.91726124 4.48096543-10.91726124 11.24314964v45.05407065c0 6.76218421 4.3587573 11.28388568 10.91726124 11.28388569z" /></svg>