<?xml version="1.0" standalone="no"?><!DOCTYPE svg PUBLIC "-//W3C//DTD SVG 1.1//EN" "http://www.w3.org/Graphics/SVG/1.1/DTD/svg11.dtd"><svg class="icon" width="200px" height="200.00px" viewBox="0 0 1024 1024" version="1.1" xmlns="http://www.w3.org/2000/svg"><path d="M591.0174075 722.9729342c-14.59873142 0-26.36275864-11.76402639-26.36275863-26.36275864L564.65464887 406.47809952c0-14.59873142 11.76402639-26.36275864 26.36275863-26.36275863s26.36275864 11.76402639 26.36275864 26.36275863l0 289.99034088C617.38016532 711.06717182 605.61613891 722.9729342 591.0174075 722.9729342zM432.84085733 722.9729342c-14.59873142 0-26.36275864-11.76402639-26.36275863-26.36275864L406.47809952 406.47809952c0-14.59873142 11.76402639-26.36275864 26.36275863-26.36275863 14.59873142 0 26.36275864 11.76402639 26.36275864 26.36275863l0 289.99034088C459.20361597 711.06717182 447.43958957 722.9729342 432.84085733 722.9729342zM854.78672491 274.66430799l-131.81379153 0L722.9729342 221.93879153c0-43.65445989-35.15034402-79.08827508-78.52133359-79.08827508L380.11534088 142.85051645c-43.65445989 0-79.08827508 35.43381518-79.08827508 79.08827508l0 52.72551646-131.81379154 0c-14.59873142 0-26.36275864 11.76402639-26.36275863 26.36275864s11.76402639 26.36275864 26.36275863 26.36275862l685.57345066 0c14.59873142 0 26.36275864-11.76402639 26.36275863-26.36275862S869.38545716 274.66430799 854.78672491 274.66430799zM353.75258307 221.93879153c0-14.45699624 11.90576157-26.36275864 26.36275863-26.36275864l264.33625891 0c14.45699624 0 25.79581714 11.62229123 25.79581714 26.36275864l0 52.72551646L353.75258307 274.66430799 353.75258307 221.93879153 353.75258307 221.93879153zM696.61017556 881.14948355L327.5315596 881.14948355c-43.65445989 0-79.08827508-35.43381518-79.08827508-79.08827508L248.44328452 406.19462835c0-14.59873142 11.76402639-26.36275864 26.36275864-26.36275863s26.36275864 11.76402639 26.36275862 26.36275863l0 395.86658012c0 14.59873142 11.90576157 26.36275864 26.36275864 26.36275863l369.22035115 0c14.59873142 0 26.36275864-11.76402639 26.36275862-26.36275863L723.11466937 407.18677536c0-14.59873142 11.76402639-26.36275864 26.36275864-26.36275864s26.36275864 11.76402639 26.36275863 26.36275864l0 394.87443311C775.69845066 845.5739332 740.26463547 881.14948355 696.61017556 881.14948355z" /></svg>