<?xml version="1.0" standalone="no"?><!DOCTYPE svg PUBLIC "-//W3C//DTD SVG 1.1//EN" "http://www.w3.org/Graphics/SVG/1.1/DTD/svg11.dtd"><svg class="icon" width="200px" height="200.00px" viewBox="0 0 1024 1024" version="1.1" xmlns="http://www.w3.org/2000/svg"><path d="M841.24339967 324.86974813c-13.65176108 0-24.70800213 11.05624105-24.70800212 24.69114864v389.58081266H577.84867964A89.1746521 89.1746521 0 0 0 512 768.40029907a89.20835982 89.20835982 0 0 0-65.84867964-29.25858964H207.46460245V349.56089677a24.70800213 24.70800213 0 0 0-49.38229654 0v398.04153442c0 23.32597245 18.43830482 42.30360518 41.12382401 42.30360519h246.94519043c17.57874955 0 32.5956868 11.37646768 38.49459555 27.3372306 3.38765912 9.16859047 12.43827147 14.98322953 22.213606 14.9832288h10.28095619c9.77533528 0 18.82594689-5.81463907 22.21360601-14.9832288 5.89890946-15.96076292 20.91584672-27.3372306 38.49459554-27.3372306h246.92833694c22.70237342 0 41.15753174-18.97763346 41.15753175-42.30360519V349.56089677c0-13.63490685-11.05624105-24.69114791-24.69114866-24.69114864zM301.42579757 242.55468466h144.72552279c22.68551919 0 41.15753174 15.62368206 41.15753173 34.83727176v357.47389399a94.46681603 94.46681603 0 0 0-41.15753173-9.26971436H301.42579757V242.55468466zM485.70771896 702.58532715l1.60113313 17.67987344h49.38229582l1.58427891-17.67987345c4.78654374-15.43828777 21.06753256-26.22486488 39.57325282-26.22486487h194.12467284v-156.52334027a24.70800213 24.70800213 0 0 0-49.38229656 1e-8v105.75901404h-144.74237628c-14.7641268 0-28.76982223 3.28653522-41.15753173 9.26971436V277.39195641c0-19.21358969 18.45515832-34.83727175 41.15753174-34.83727175h144.72552278v177.33806237a24.69114791 24.69114791 0 0 0 49.39915004 0V225.48155603a33.70805253 33.70805253 0 0 0-33.70805181-33.70805182h-160.41662102c-25.9552002 0-49.3317346 10.43264201-65.84867964 27.03385748A92.69714356 92.69714356 0 0 0 446.15132036 191.77350421H285.73469934a33.70805253 33.70805253 0 0 0-33.70805182 33.70805181v450.87890625h194.12467283c18.50572099 0 34.7867098 10.78657638 39.55639861 26.22486487z" /></svg>