<?xml version="1.0" standalone="no"?><!DOCTYPE svg PUBLIC "-//W3C//DTD SVG 1.1//EN" "http://www.w3.org/Graphics/SVG/1.1/DTD/svg11.dtd"><svg class="icon" width="200px" height="200.00px" viewBox="0 0 1024 1024" version="1.1" xmlns="http://www.w3.org/2000/svg"><path d="M239.21302159 230.35517883c-0.48666001 0.5098343-0.95014572 1.05056763-1.40590668 1.5449524a0.13904572 0.13904572 0 0 1-0.03862381 0.05407334l-0.11587142 0.19311904c0.98876953-1.08919144 1.46770478-1.66082382 1.60675049-1.8693924zM853.91095479 591.56504822H703.22402318V254.44098663v-8.85257721a73.43158722 73.43158722 0 0 0-7.25355148-31.61745071c-9.68685151-20.70236206-30.97629548-33.40959548-53.18498612-35.4798317-2.52599717-0.23174287-5.0365448-0.21629333-7.57026672-0.21629334h-381.68048859a68.88942719 68.88942719 0 0 0-31.04581832 7.37714769c-22.86529541 11.36312485-34.9931717 36.25230789-34.9931717 60.98699569v522.49517442c0 5.32236099-0.26264191 10.76831818 0.33216476 16.06750487 1.24368667 10.98461152 4.11729813 21.76837922 10.49022675 30.99946976 6.24160766 9.04569626 14.21356201 17.17214585 24.17078019 22.10826874a68.56498718 68.56498718 0 0 0 31.04581832 7.40032196c23.71501923 0 47.43003846-0.09269714 71.13733292-0.13904571l132.64188766-0.27036667 126.40028-0.24719239c18.31541062 0 36.63082123-0.11587143 54.93850708-0.10814667 35.75019836 0 71.50039673 0.18539429 107.24287033 0.27809143h14.50710297c5.22966384 0.35533905 10.49022675 0.45576096 15.74306487 0.45576096 33.09288025-0.23174287 62.76369095-16.28379822 82.28416443-42.66386032C871.52341206 785.33297729 877.08524068 763.49507522 877.08524068 741.72669601V614.73933411c0-12.55273819-10.6215477-23.17428589-23.17428589-23.17428589zM715.4445966 772.93473434l0.7724762 0.98104478c-0.40168762-0.40168762-0.81110001-0.86517334-0.77247619-0.98104478z m-61.26508712-539.59779738a1.37500763 1.37500763 0 0 0-0.18539429-0.38623811 0.81882477 0.81882477 0 0 1 0.18539429 0.38623811zM236.54025395 790.63216401a1.99298859 1.99298859 0 0 0 0.18539429 0.38623809 0.98876953 0.98876953 0 0 1-0.18539429-0.3862381zM637.07688649 798.58866882l-28.16448212 0.05407334-55.61828612 0.11587143-72.27287294 0.13904571-77.08539962 0.15449524-71.11415863 0.14677048-54.03470993 0.10814666c-8.62083435 0-17.24939346 0.06952285-25.87795258 0.04634858-1.01194382 0-2.01616287 0-3.02810668-0.07724762a43.8457489 43.8457489 0 0 1-4.41083908-1.21278763c-1.41363144-0.7724762-2.7809143-1.54495239-4.14819718-2.41785049-0.72612763-0.65660477-1.45998001-1.31320954-2.14748383-2.02388764-0.13132095-0.13904572-0.55618286-0.53300857-1.01966857-0.98876953-0.11587143-0.18539429-0.25491714-0.40168762-0.42486191-0.64888a42.20809937 42.20809937 0 0 1-2.36377716-4.13274765 46.45671845 46.45671845 0 0 1-1.45998001-5.40733337c-0.34761428-5.29146194-0.10042191-10.67562104-0.10042192-15.94390871V264.75354386v-19.96078492c0-1.11236573 0-2.21700668 0.10814668-3.32164764a47.96304702 47.96304702 0 0 1 1.45225525-5.34553528 42.37804414 42.37804414 0 0 1 2.24790573-3.93962861l-1.11236572 1.20506287c0.43258667-0.46348572 0.84972382-0.95787049 1.26686096-1.45225525 0.70295334-1.04284287 1.73807144-2.05478669 1.45225525-1.62220001 0.67977906-0.69522858 1.39045716-1.34410858 2.10886001-1.99298858 1.35183335-0.85744858 2.71139145-1.66082382 4.11729813-2.40240098a43.8457489 43.8457489 0 0 1 4.41083908-1.21278762c3.86238098-0.22401809 7.72476196-0.08497238 11.58714294-0.08497238h330.92107773c15.27185439 0 30.55915833-0.12359619 45.83101272 0 0.8728981 0 1.74579621 0.03862381 2.61869431 0.08497238a43.52130891 43.52130891 0 0 1 4.39538956 1.20506287c1.41363144 0.7724762 2.7809143 1.54495239 4.14819717 2.41785048 0.73385239 0.65660477 1.45998001 1.32093429 2.14748384 2.02388764 0.13904572 0.14677048 0.55618286 0.53300857 1.02739333 0.98876953l0.41713714 0.64888001a42.20809937 42.20809937 0 0 1 2.36377717 4.13274765 47.28326798 47.28326798 0 0 1 1.44453049 5.30691147c0.23174287 3.78513337 0.11587143 7.6166153 0.11587142 11.40174865v310.96801758c0 15.00921249-0.30126572 30.0570488 0 45.05853653v0.61798096a20.47834397 20.47834397 0 0 0 0.16994476 2.58007049 21.62933349 21.62933349 0 0 0-0.16994476 2.65731812v86.86494827c0 11.01551056-0.04634858 22.03102112 0 33.03880692a113.05189132 113.05189132 0 0 0 20.28522492 64.0537262l-13.6882782-0.03862382c-8.79850387-0.04634858-17.59700776-0.04634858-26.39551163-0.04634856z m182.35845566-20.34702301q-2.23245621 2.66504288-4.68893051 5.12924195t-5.12924194 4.68120575c-0.62570572 0.4480362-1.25913621 0.89607239-1.90029145 1.32865905a77.84242629 77.84242629 0 0 1-10.38208008 5.83992005 81.38036728 81.38036728 0 0 1-13.79642486 3.76968384l-1.08919144 0.08497237a23.28243256 23.28243256 0 0 0-2.31742859-0.11587142l-21.02680206-0.0617981h-0.1004219a90.60373306 90.60373306 0 0 1-16.3301468-4.4880867 88.37900162 88.37900162 0 0 1-11.58714294-6.46562575c-0.95014572-0.63343048-1.87711716-1.29003525-2.80408859-1.95436479-2.10113526-1.78442002-4.1636467-3.59973908-6.11801148-5.55410385s-3.70788575-3.86238098-5.40733338-5.94034195c-0.59480667-0.84199905-1.19733811-1.66854859-1.76897048-2.52599716a88.06228638 88.06228638 0 0 1-6.75144195-12.0429039 90.91272353 90.91272353 0 0 1-4.46491242-16.29924774c-0.50210952-5.61590195-0.46348572-11.21635437-0.46348572-16.86315538V637.91362H830.7366689v94.57426071c0 6.57377243 0.18539429 13.18616867-0.3862381 19.73676681a81.21042251 81.21042251 0 0 1-3.75423431 13.71917724 77.84242629 77.84242629 0 0 1-5.83992004 10.38208008c-0.42486191 0.63343048-0.88062287 1.26686096-1.3209343 1.90029144zM329.49231466 413.37023925h231.74285888c12.12015152 0 23.73046875-10.66017151 23.17428589-23.17428588s-10.18123627-23.17428589-23.17428589-23.17428589h-231.74285888c-12.12787628 0-23.73819351 10.66017151-23.17428589 23.17428589s10.18123627 23.17428589 23.17428589 23.17428589zM329.49231466 535.60687256h231.74285888c12.12015152 0 23.73046875-10.66017151 23.17428589-23.17428589s-10.18123627-23.17428589-23.17428589-23.17428589h-231.74285888c-12.12787628 0-23.73819351 10.66017151-23.17428589 23.17428589s10.18123627 23.17428589 23.17428589 23.17428589zM329.49231466 657.65811157h84.97238159c12.12015152 0 23.73046875-10.66017151 23.17428588-23.17428589s-10.18123627-23.17428589-23.17428588-23.17428589h-84.97238159c-12.12787628 0-23.73819351 10.66017151-23.17428589 23.17428589s10.18123627 23.17428589 23.17428589 23.17428589z" /></svg>