<?xml version="1.0" standalone="no"?><!DOCTYPE svg PUBLIC "-//W3C//DTD SVG 1.1//EN" "http://www.w3.org/Graphics/SVG/1.1/DTD/svg11.dtd"><svg class="icon" width="200px" height="200.00px" viewBox="0 0 1024 1024" version="1.1" xmlns="http://www.w3.org/2000/svg"><path d="M833.35009766 398.95892334a24.71923828 24.71923828 0 0 0-24.71923829 24.71923828V783.91162109a24.71923828 24.71923828 0 0 1-24.71923828 24.71923829H240.08837891a24.71923828 24.71923828 0 0 1-24.71923829-24.71923829V240.08837891a24.71923828 24.71923828 0 0 1 24.71923829-24.71923829h331.85577392a24.71923828 24.71923828 0 0 0 0-49.43847656H240.08837891a74.15771484 74.15771484 0 0 0-74.15771485 74.15771485v543.82324218a74.15771484 74.15771484 0 0 0 74.15771485 74.15771485h543.82324218a74.15771484 74.15771484 0 0 0 74.15771485-74.15771485V423.67816162a24.71923828 24.71923828 0 0 0-24.71923828-24.71923828zM295.41003417 654.45697021a29.66308594 29.66308594 0 0 0 34.18670656 41.55303956l114.32647704-29.6383667L850.72772217 259.59185791 745.84399414 154.70812988 340.84399414 559.70812989l-45.43395997 94.74884032z m86.36901856-65.75317383L745.84399414 224.63885498l34.95300293 34.95300293-362.28515625 362.28515624-60.1171875 15.57312013 23.38439941-48.7463379z" /></svg>