<?xml version="1.0" standalone="no"?><!DOCTYPE svg PUBLIC "-//W3C//DTD SVG 1.1//EN" "http://www.w3.org/Graphics/SVG/1.1/DTD/svg11.dtd"><svg class="icon" width="200px" height="200.00px" viewBox="0 0 1024 1024" version="1.1" xmlns="http://www.w3.org/2000/svg"><path d="M511.69100952 858.23928071c-46.60348892 0-91.82424546-9.13066865-134.41085815-27.14481355-41.11890793-17.39616394-78.04327012-42.28534699-109.74569321-73.98777008s-56.5993309-68.62678528-73.98777008-109.7456932c-18.0141449-42.5866127-27.14481354-87.80736923-27.14481354-134.41085816 0-70.1871872 20.94182968-137.74795532 60.55440903-195.38240433 37.10975647-53.98063659 88.13180923-95.94154357 147.92919159-121.7499733 4.1636467-1.79986954 8.99934769 0.22401809 10.69107056 4.4262886l12.43686676 30.80635072c1.65309907 4.09412384-0.28581619 8.73670578-4.33359147 10.49795151-107.89175033 46.88158035-177.3141861 151.93061828-177.83946991 270.0422287-0.72612763 163.04655075 132.80410766 297.21021653 295.85838318 297.21021651 163.1392479 0 295.85838318-132.71913528 295.85838318-295.85838317 0-118.69096756-69.56920625-224.38116074-177.92444228-271.43268585-4.01687622-1.74579621-5.89399338-6.39610291-4.25634385-10.4593277l12.43686676-30.81407547c1.69944763-4.20999527 6.52742386-6.22615815 10.69879532-4.42628861 59.79738235 25.80842972 110.81943513 67.76161193 147.92919158 121.7499733 39.6203041 57.634449 60.55440903 125.19521713 60.55440903 195.38240433 0 46.60348892-9.13066865 91.82424546-27.14481353 134.41085815-17.39616394 41.11890793-42.28534699 78.04327012-73.98777009 109.74569321-31.7024231 31.7024231-68.62678528 56.5993309-109.75341797 73.98777009-42.5866127 18.02186965-87.81509399 27.1525383-134.4185829 27.15253829zM528.17565156 462.92458725h-33.21647646c-4.48036193 0-8.11100006-3.63063813-8.11100005-8.11100006V174.21160888c0-4.48036193 3.63063813-8.11100006 8.11100005-8.11100006h33.21647645c4.48036193 0 8.11100006 3.63063813 8.11100006 8.11100006v280.60197831c0 4.48036193-3.63063813 8.11100006-8.11100006 8.11100006z" /></svg>