<?xml version="1.0" standalone="no"?><!DOCTYPE svg PUBLIC "-//W3C//DTD SVG 1.1//EN" "http://www.w3.org/Graphics/SVG/1.1/DTD/svg11.dtd"><svg class="icon" width="200px" height="200.00px" viewBox="0 0 1024 1024" version="1.1" xmlns="http://www.w3.org/2000/svg"><path d="M433.15386963 493.9631958H231.41192627c-33.41217041 0-60.60333252-27.18292237-60.60333252-60.60333252V231.61791992c0-33.41217041 27.18292237-60.60333252 60.60333252-60.60333252h201.74194336c33.41217041 0 60.60333252 27.18292237 60.60333252 60.60333252v201.74194336c0 33.41217041-27.18292237 60.60333252-60.60333252 60.60333252zM231.41192627 220.46130371c-6.15509033 0-11.16485596 5.00976563-11.16485596 11.16485596v201.74194336c0 6.15509033 5.00976563 11.16485596 11.16485596 11.16485595h201.74194336c6.15509033 0 11.16485596-5.00976563 11.16485596-11.16485595V231.61791992c0-6.15509033-5.00976563-11.16485596-11.16485596-11.16485596H231.41192627z m201.74194336 632.52410889H231.41192627c-33.41217041 0-60.60333252-27.18292237-60.60333252-60.60333252V590.64013672c0-33.41217041 27.18292237-60.60333252 60.60333252-60.60333252h201.74194336c33.41217041 0 60.60333252 27.18292237 60.60333252 60.60333252v201.74194336c0 33.41217041-27.18292237 60.60333252-60.60333252 60.60333252zM231.41192627 579.48352051c-6.15509033 0-11.16485596 5.00976563-11.16485596 11.16485595v201.74194336c0 6.15509033 5.00976563 11.16485596 11.16485596 11.16485596h201.74194336c6.15509033 0 11.16485596-5.00976563 11.16485596-11.16485596V590.64837646c0-6.15509033-5.00976563-11.16485596-11.16485596-11.16485595H231.41192627z m561.17614746 273.50189209H590.84613037c-33.41217041 0-60.60333252-27.18292237-60.60333251-60.60333252V590.64013672c0-33.41217041 27.18292237-60.60333252 60.60333251-60.60333252h201.74194336c33.41217041 0 60.60333252 27.18292237 60.60333252 60.60333252v201.74194336c0 33.41217041-27.18292237 60.60333252-60.60333252 60.60333252zM590.84613037 579.48352051c-6.15509033 0-11.16485596 5.00976563-11.16485595 11.16485595v201.74194336c0 6.15509033 5.00976563 11.16485596 11.16485595 11.16485596h201.74194336c6.15509033 0 11.16485596-5.00976563 11.16485596-11.16485596V590.64837646c0-6.15509033-5.00976563-11.16485596-11.16485596-11.16485595H590.84613037zM847.35766602 211.31518555c0-13.65325927-11.06597901-24.71923828-24.71923829-24.71923828H664.9296875c-13.65325927 0-24.71923828 11.06597901-24.71923828 24.71923828s11.06597901 24.71923828 24.71923828 24.71923828H822.63842773c13.65325927 0 24.71923828-11.06597901 24.71923829-24.71923828z m0 121.17370606c0-13.65325927-11.06597901-24.71923828-24.71923829-24.71923829H664.9296875c-13.65325927 0-24.71923828 11.06597901-24.71923828 24.71923828s11.06597901 24.71923828 24.71923828 24.71923828H822.63842773c13.65325927 0 24.71923828-11.06597901 24.71923829-24.71923828z m0 121.17370605c0-13.65325927-11.06597901-24.71923828-24.71923829-24.71923829H664.9296875c-13.65325927 0-24.71923828 11.06597901-24.71923828 24.71923829s11.06597901 24.71923828 24.71923828 24.71923828H822.63842773c13.65325927 0 24.71923828-11.06597901 24.71923829-24.71923828zM612.57434083 211.31518555c0-13.65325927-11.06597901-24.71923828-24.7192383-24.71923828h-32.8930664c-13.65325927 0-24.71923828 11.06597901-24.71923828 24.71923828s11.06597901 24.71923828 24.71923828 24.71923828h32.8930664c13.65325927 0 24.71923828-11.06597901 24.71923829-24.71923828z m-1e-8 121.17370606c0-13.65325927-11.06597901-24.71923828-24.71923829-24.71923829h-32.8930664c-13.65325927 0-24.71923828 11.06597901-24.71923828 24.71923828s11.06597901 24.71923828 24.71923828 24.71923828h32.8930664c13.65325927 0 24.71923828-11.06597901 24.71923829-24.71923828z m0 121.17370605c0-13.65325927-11.06597901-24.71923828-24.71923829-24.71923829h-32.8930664c-13.65325927 0-24.71923828 11.06597901-24.71923828 24.71923829s11.06597901 24.71923828 24.71923828 24.71923828h32.8930664c13.65325927 0 24.71923828-11.06597901 24.71923829-24.71923828z" /></svg>