<?xml version="1.0" standalone="no"?><!DOCTYPE svg PUBLIC "-//W3C//DTD SVG 1.1//EN" "http://www.w3.org/Graphics/SVG/1.1/DTD/svg11.dtd"><svg class="icon" width="200px" height="200.00px" viewBox="0 0 1024 1024" version="1.1" xmlns="http://www.w3.org/2000/svg"><path d="M816.0719808 462.56152344H324.77711995l-74.15771484 296.63085937h491.29486083zM780.52571614 413.12304687v-49.43847656H513.2365926l-98.87695312-98.87695312H236.67775471v346.06933594l44.81597901-179.21447755q2.3236084-8.50341797 8.87420654-13.52142334T305.42195638 413.12304687h475.07904052z m-19.3057251 395.50781251H211.98323567q-10.82702637 0-17.77313232-6.94610596T187.26399739 783.91162109V240.08837891q0-10.82702637 6.94610596-17.77313233T211.98323567 215.36914062h222.47314454l98.87695312 98.87695313h271.91162109q10.82702637 0 17.77313233 6.94610596T829.96419271 338.96533203v74.15771484h17.77313232q11.59332276 0 18.93493652 9.66522217t5.01800537 21.23382569l-86.51733398 346.06933593q-2.3236084 8.50341797-8.87420654 13.52142335T761.24471028 808.63085938z" /></svg>