<?xml version="1.0" standalone="no"?><!DOCTYPE svg PUBLIC "-//W3C//DTD SVG 1.1//EN" "http://www.w3.org/Graphics/SVG/1.1/DTD/svg11.dtd"><svg class="icon" width="200px" height="200.00px" viewBox="0 0 1024 1024" version="1.1" xmlns="http://www.w3.org/2000/svg"><path d="M890.368 964.096c-9.216 0-16.896-6.144-19.968-15.36-4.608-17.92-27.648-128-50.176-247.296l3.072 199.68c0 5.12-2.56 10.752-5.12 13.824-4.608 4.608-8.704 6.144-13.824 6.144h-517.12c-5.12 0-10.752-2.56-13.824-6.144-4.608-4.608-5.12-9.216-5.12-14.848l5.12-192.512c-23.04 117.76-48.128 223.744-52.224 241.152-2.56 9.216-10.24 15.36-19.968 15.36h-1.024c-19.968-1.024-76.288-19.968-100.352-27.648-9.216-3.072-15.36-12.8-12.8-23.04 18.432-81.92 54.784-263.68 87.04-424.448 52.224-261.12 68.096-333.824 71.68-342.016 3.072-6.144 10.752-21.504 146.944-73.216 2.56-1.024 4.608-1.536 7.168-1.536 5.12 0 10.752 2.56 13.824 6.144 34.816 36.864 80.896 56.832 130.56 56.832s98.816-18.432 132.608-55.808c4.608-4.608 9.216-6.144 14.848-6.144 2.56 0 4.608 1.024 7.168 1.536 136.704 51.712 144.384 66.048 146.944 72.192 10.752 21.504 135.68 633.344 159.744 770.048 1.536 10.24-4.608 19.968-13.824 22.528-24.576 7.168-80.896 23.552-101.376 24.576 0.512 0 0.512 0 0 0z" fill="#D6EDD6" /><path d="M192.512 852.992l-25.088-6.656-75.776-19.456c-4.608-1.024-7.168-5.632-6.144-9.728 1.024-4.608 5.632-7.168 9.728-6.144l100.352 25.6c4.608 1.024 7.168 5.632 6.144 9.728-0.512 5.12-4.096 7.68-9.216 6.656z m0-36.864l-25.088-6.656-75.776-19.456c-4.608-1.024-7.168-5.632-6.144-9.728 1.024-4.608 5.632-7.168 9.728-6.144l100.352 25.6c4.608 1.024 7.168 5.632 6.144 9.728-0.512 5.12-4.096 7.68-9.216 6.656z m5.632-39.936l-25.088-6.656L97.28 750.08c-4.608-1.024-7.168-5.632-6.144-9.728 1.024-4.608 5.632-7.168 9.728-6.144l100.352 25.6c4.608 1.024 7.168 5.632 6.144 9.728-0.512 4.608-4.608 7.68-9.216 6.656z m644.096 79.872c-1.024-4.608 1.536-8.704 6.144-9.728l100.352-25.6c4.608-1.024 8.704 1.536 9.728 6.144 1.024 4.608-1.536 8.704-6.144 9.728l-75.776 19.456-25.088 6.656c-4.096 0.512-8.192-2.048-9.216-6.656z m-5.632-36.864c-1.024-4.608 1.536-8.704 6.144-9.728l100.352-25.6c4.608-1.024 8.704 1.536 9.728 6.144 1.024 4.608-1.536 8.704-6.144 9.728L870.912 819.2l-25.088 6.656c-3.584 1.024-8.192-2.048-9.216-6.656z m-10.752-39.936c-1.024-4.608 1.536-8.704 6.144-9.728l100.352-25.6c4.608-1.024 8.704 1.536 9.728 6.144 1.024 4.608-1.536 8.704-6.144 9.728l-75.776 19.456-25.088 6.656c-4.096 0.512-8.192-2.048-9.216-6.656z" fill="#FFFFFF" /><path d="M521.728 399.872v485.376c0 4.608-4.096 8.192-8.192 8.192-4.608 0-8.192-4.096-8.192-8.192V399.872c0-4.608 4.096-8.192 8.192-8.192s8.192 3.584 8.192 8.192z" fill="#351D14" /><path d="M367.104 72.192c0.512 0 0.512 0 1.024 0.512l0.512 0.512c37.376 39.936 88.064 61.952 142.848 61.952 56.832 0 109.056-22.016 143.872-60.928 0.512-0.512 1.024-1.024 2.048-1.024h0.512c0.512 0 1.024 0.512 1.536 0.512 120.32 45.568 135.68 60.416 137.216 62.976 0 0 0 0.512 0.512 0.512 12.288 30.208 132.608 616.448 158.208 765.44 0.512 1.536-0.512 3.072-1.536 4.096-0.512 0-0.512 0-1.024 0.512-22.528 7.68-76.288 23.04-94.72 24.064-1.024 0-2.56-0.512-4.096-3.072-4.096-16.896-27.136-124.928-49.664-246.272-1.536-7.68-8.192-13.312-15.872-13.312h-1.536c-8.192 1.024-14.848 8.192-14.848 16.384l3.072 199.168c0 0.512-0.512 1.536-0.512 2.56-1.024 0.512-1.024 0.512-1.536 0.512H256c-0.512 0-1.024 0-1.536-0.512 0-0.512-0.512-0.512-0.512-1.024 0 0-0.512-0.512-0.512-2.56l5.12-192.512c0-8.704-6.144-15.872-14.848-16.384h-1.536c-7.68 0-14.336 5.632-15.872 13.312-23.552 118.784-49.152 226.816-52.224 240.64-1.024 3.072-3.072 3.072-4.096 3.072h-0.512c-15.872-1.024-67.072-17.408-88.576-24.064l-6.656-2.048c-0.512-0.512-2.56-1.536-2.048-4.096v-0.512c19.456-82.944 56.832-272.384 87.04-424.96 29.696-147.968 64.512-318.976 70.144-337.92 4.096-5.12 24.576-22.016 137.216-65.024-1.024 0-0.512-0.512 0.512-0.512-0.512 0-0.512 0 0 0m-0.512-16.896c-2.56 0-4.608 1.024-7.168 1.536-135.68 51.712-143.36 67.072-146.944 73.216-3.072 8.704-18.432 80.896-71.68 342.016-31.744 160.256-68.096 343.04-87.04 424.448-2.56 10.24 3.072 19.968 12.8 23.04 24.064 7.68 80.896 26.624 100.352 27.648h2.048c9.216 0 16.896-6.144 19.968-15.36 4.608-17.92 29.184-123.904 52.224-241.152l-5.12 192.512c0 5.12 1.024 10.24 5.12 14.848 2.56 3.072 8.704 6.144 13.824 6.144H773.12c5.12 0 9.216-1.536 13.824-6.144 2.56-2.56 5.12-8.704 5.12-13.824l-3.072-199.68C811.52 803.84 834.56 914.432 839.168 931.84c2.56 9.216 10.24 15.36 19.968 15.36 20.992-1.024 77.312-16.896 99.328-24.576 9.216-2.56 15.36-12.288 13.824-22.528C947.2 762.88 822.272 151.04 811.52 129.536c-2.56-6.144-10.24-20.992-146.944-72.192-2.56-1.024-4.608-1.536-7.168-1.536-5.12 0-10.24 1.536-14.848 6.144-33.28 36.864-82.432 55.808-132.608 55.808s-96.256-19.456-130.56-56.32c-1.536-3.072-7.68-6.144-12.8-6.144z" fill="#351D14" /><path d="M270.336 420.864L258.048 691.2c0 4.608-4.608 8.192-8.704 7.68-4.608-0.512-8.192-4.608-7.68-8.704l12.288-270.336c0-4.608 4.608-8.192 8.704-7.68 4.608 0 7.68 4.096 7.68 8.704z m499.2-8.704c4.608 0 8.192 3.072 8.704 7.68l12.8 270.336c0 4.608-3.072 8.192-7.68 8.704-4.608 0-8.192-3.072-8.704-7.68l-12.8-270.336c-0.512-4.608 3.072-8.704 7.68-8.704z" fill="#351D14" /><path d="M225.792 129.024c-6.656 3.072-9.728 7.68-1.024 19.456s286.208 280.064 286.208 280.064L385.536 64s-5.12-7.168-20.48 2.048c-15.872 9.728-139.264 62.976-139.264 62.976z" fill="#FFFDFD" /><path d="M378.368 61.952c5.12 0 6.656 2.56 6.656 2.56l125.952 364.544s-277.504-268.8-286.208-280.064-6.144-15.872 0.512-19.456c0 0 122.88-53.76 138.752-62.464 6.656-4.096 10.752-5.12 14.336-5.12m0-16.384c-6.656 0-14.336 2.048-22.016 7.168-11.776 6.656-88.064 40.448-136.704 61.44-0.512 0-0.512 0-0.512 0.512-3.072 1.536-12.8 6.144-14.848 16.896-2.56 10.752 3.072 20.48 8.192 26.624 8.704 11.776 222.72 219.136 287.744 282.624 3.072 3.072 7.168 4.608 11.776 4.608 3.072 0 6.144-1.024 8.704-2.56 6.656-4.096 9.216-12.288 6.656-19.456L401.408 58.88c-0.512-1.536-1.024-2.56-2.048-4.096-4.096-4.096-11.264-9.216-20.992-9.216z" fill="#351D14" /><path d="M662.528 66.56c-15.36-9.216-20.48-2.048-20.48-2.048L516.096 429.056s277.504-268.8 286.208-280.064 5.632-15.872-1.024-19.456c0-0.512-122.88-53.76-138.752-62.976z" fill="#FFFDFD" /><path d="M648.704 61.952c3.072 0 7.68 1.024 13.824 5.12 15.36 8.704 138.752 62.464 138.752 62.464 6.656 3.072 9.728 7.68 1.024 19.456S516.096 429.056 516.096 429.056L642.048 64.512c0 0.512 1.536-2.56 6.656-2.56m0-16.384c-9.728 0-16.896 5.12-20.48 9.728-1.024 1.024-1.536 2.56-2.048 4.096L500.224 423.936c-2.56 7.168 0.512 15.36 6.656 19.456 2.56 1.536 6.144 2.56 8.704 2.56 4.608 0 8.192-1.536 11.776-4.608 65.536-62.976 279.04-270.336 287.744-282.624 4.608-6.144 10.24-15.36 8.192-26.624-2.56-10.752-12.288-15.872-14.848-16.896 0 0-0.512 0-0.512-0.512-49.152-21.504-125.44-55.296-136.704-61.44-8.192-5.632-15.36-7.68-22.528-7.68z" fill="#351D14" /><path d="M221.696 891.904L37.888 855.04c-5.632 29.184-12.288 54.784-17.92 78.848 0 1.536 0 5.12 2.56 5.12 22.016 7.68 141.312 47.104 173.056 49.664 1.536 0 2.56-1.536 5.12-2.56 1.536-12.8 10.24-45.568 20.992-94.208z" fill="#9FD69F" /><path d="M50.176 874.496l151.04 30.208c-4.096 17.408-7.168 32.256-10.24 45.056-1.536 8.192-3.072 14.848-4.608 20.48-33.28-6.144-111.104-30.72-148.48-43.52 0.512-1.024 0.512-2.048 1.024-4.096 3.584-15.36 7.168-31.232 11.264-48.128M36.864 855.04c-5.632 29.184-12.288 54.784-17.92 78.848 0 1.536 0 5.12 2.56 5.12 22.016 7.68 141.312 47.104 173.056 49.664 1.536 0 2.56-1.536 5.12-2.56 1.536-11.776 10.24-44.544 20.992-92.672l-183.808-38.4z" fill="#351D14" /><path d="M808.448 890.368c10.24 48.128 18.432 81.408 20.992 92.672 1.536 1.024 2.56 2.56 5.12 2.56 32.256-1.536 151.04-41.984 173.056-49.664 2.56 0 2.56-2.56 2.56-5.12-5.632-23.552-12.288-49.664-17.92-78.848l-183.808 38.4z" fill="#9FD69F" /><path d="M979.968 872.96c4.096 16.896 7.68 32.768 10.752 48.128 0.512 1.024 0.512 2.56 1.024 4.096-37.376 12.8-114.688 37.376-148.48 43.52-1.024-5.632-2.56-12.288-4.608-20.48-2.56-12.8-6.656-27.648-10.24-45.056l151.552-30.208m13.312-19.456l-183.808 36.864c10.24 48.128 18.432 81.408 20.992 92.672 1.536 1.024 2.56 2.56 5.12 2.56 32.256-1.536 151.04-41.984 173.056-49.664 2.56 0 2.56-2.56 2.56-5.12-5.632-23.04-12.288-48.128-17.92-77.312zM514.56 519.168c-25.6 0-46.592-20.992-46.592-46.592s20.992-46.592 46.592-46.592 46.592 20.992 46.592 46.592c0 26.112-20.992 46.592-46.592 46.592z m0-76.8c-16.384 0-30.208 13.824-30.208 30.208s13.824 30.208 30.208 30.208 30.208-13.824 30.208-30.208-13.824-30.208-30.208-30.208zM263.168 150.016c-2.048 0-4.608-1.024-6.144-2.56l-5.632-6.144c-3.072-3.072-2.56-8.704 0.512-11.776 3.072-3.072 8.704-2.56 11.776 0.512l5.632 6.144c3.072 3.072 2.56 8.704-0.512 11.776-1.024 1.024-3.072 2.048-5.632 2.048z m164.864 179.712c-2.048 0-4.608-1.024-6.144-2.56l-10.752-12.288c-3.072-3.072-2.56-8.704 0.512-11.776 3.072-3.072 8.704-2.56 11.776 0.512l10.752 12.288c3.072 3.072 2.56 8.704-0.512 11.776-1.536 1.536-3.072 2.048-5.632 2.048z m-32.768-35.84c-2.048 0-4.608-1.024-6.144-2.56l-10.752-12.288c-3.072-3.072-2.56-8.704 0.512-11.776 3.072-3.072 8.704-2.56 11.776 0.512l10.752 12.288c3.072 3.072 2.56 8.704-0.512 11.776-1.024 1.024-3.584 2.048-5.632 2.048z m-32.768-36.352c-2.048 0-4.608-1.024-6.144-2.56L345.6 242.688c-3.072-3.072-2.56-8.704 0.512-11.776 3.072-3.072 8.704-2.56 11.776 0.512l10.752 12.288c3.072 3.072 2.56 8.704-0.512 11.776-1.536 1.536-3.584 2.048-5.632 2.048z m-33.28-35.328c-2.048 0-4.608-1.024-6.144-2.56L312.32 207.36c-3.072-3.072-2.56-8.704 0.512-11.776 3.072-3.072 8.704-2.56 11.776 0.512l10.752 12.288c3.072 3.072 2.56 8.704-0.512 11.776-1.024 0.512-3.584 2.048-5.632 2.048z m-32.768-36.352c-2.048 0-4.608-1.024-6.144-2.56l-10.752-12.288c-3.072-3.072-2.56-8.704 0.512-11.776 3.072-3.072 8.704-2.56 11.776 0.512l10.752 12.288c3.072 3.072 2.56 8.704-0.512 11.776-1.536 1.536-3.584 2.048-5.632 2.048z m159.232 174.08c-2.048 0-4.608-1.024-6.144-2.56l-5.632-6.144c-3.072-3.072-2.56-8.704 0.512-11.776 3.072-2.56 8.704-2.56 11.776 0.512l5.632 6.144c3.072 3.072 2.56 8.704-0.512 11.776-1.024 1.536-3.584 2.048-5.632 2.048zM762.88 159.232c2.048 0 4.608-0.512 6.144-2.56l5.632-6.144c3.072-3.072 3.072-8.192 0-11.776-3.072-3.072-8.192-3.072-11.776 0l-5.632 6.144c-3.072 3.072-3.072 8.192 0 11.776 2.048 1.536 4.096 2.048 5.632 2.56zM587.776 331.776c-3.072-3.072-3.072-8.192 0-11.776l11.776-11.776c3.072-3.072 8.192-3.072 11.776 0 3.072 3.072 3.072 8.192 0 11.776l-11.776 11.776c-1.536 1.536-4.096 2.56-6.144 2.56-2.56 0-4.096-1.024-5.632-2.56z m33.792-34.816c-3.072-3.072-3.072-8.192 0-11.776l11.776-11.776c3.072-3.072 8.192-3.072 11.776 0 3.072 3.072 3.072 8.192 0 11.776l-11.776 11.776c-1.536 1.536-4.096 2.56-6.144 2.56-2.048-0.512-4.096-1.024-5.632-2.56z m34.304-35.328c-3.072-3.072-3.072-8.192 0-11.776l11.776-11.776c3.072-3.072 8.192-3.072 11.776 0 3.072 3.072 3.072 8.192 0 11.776l-11.776 11.776c-1.536 1.536-4.096 2.56-6.144 2.56-2.56 0-4.608-1.024-5.632-2.56z m33.28-34.816c-3.072-3.072-3.072-8.192 0-11.776l11.776-11.776c3.072-3.072 8.192-3.072 11.776 0 3.072 3.072 3.072 8.192 0 11.776l-11.776 11.776c-1.536 1.536-4.096 2.56-6.144 2.56-1.536 0-3.584-1.536-5.632-2.56zM723.456 192c-3.072-3.072-3.072-8.192 0-11.776l11.776-11.776c3.072-3.072 8.192-3.072 11.776 0 3.072 3.072 3.072 8.192 0 11.776L735.232 192c-1.536 1.536-4.096 2.56-6.144 2.56-2.048-0.512-4.096-1.024-5.632-2.56z m-158.72 171.008c2.048 0 4.608-0.512 6.144-2.56l5.632-6.144c3.072-3.072 3.072-8.192 0-11.776s-8.192-3.072-11.776 0l-5.632 6.144c-3.072 3.072-3.072 8.192 0 11.776 1.536 2.048 3.584 2.56 5.632 2.56z" fill="#351D14" /></svg>