<?xml version="1.0" standalone="no"?><!DOCTYPE svg PUBLIC "-//W3C//DTD SVG 1.1//EN" "http://www.w3.org/Graphics/SVG/1.1/DTD/svg11.dtd"><svg class="icon" width="200px" height="200.00px" viewBox="0 0 1024 1024" version="1.1" xmlns="http://www.w3.org/2000/svg"><path d="M353.06830321 857.23869772c-27.48053893 0-53.9677972-5.86327537-78.7264891-17.42620301l-28.0942954-13.12108151 87.4168463-87.42295672-49.86567703-49.85617194-87.26883865 87.26544399-12.99004723-28.48807723c-11.08903158-24.31942149-16.71128534-50.29204767-16.71128532-77.1961715 0-49.74482674 19.37270723-96.50981147 54.54896482-131.68335334 35.17625761-35.172184 81.94463699-54.54217549 131.69150054-54.54217549 21.73132449 0 42.85703972 3.66896018 62.99354789 10.92405059l79.00824677-79.00688892c-7.27749522-20.19897009-10.95731836-41.38918406-10.95731836-63.18840197 0-49.896908 19.43245343-96.80990036 54.71666157-132.0961453 35.28692388-35.28896067 82.20195305-54.72345091 132.10293464-54.72345093 26.96183324 0 52.99284774 5.63243777 77.37065759 16.73912164l28.50097697 12.98733149-86.47312782 86.46905423 49.86771382 49.87042955 86.67001873-86.67680807 13.16385437 27.9686926c11.75370813 24.97323509 17.71407108 51.70762539 17.71407108 79.46109586 0 49.90573414-19.43245343 96.82212118-54.71869837 132.1083661-35.28420813 35.28420813-82.19584264 54.71598263-132.09546637 54.71598265-22.52771426 0-44.38124691-3.92491836-65.16749505-11.68717258l-77.91652065 77.91855746c7.6108519 20.56898922 11.45972963 42.17946343 11.45972964 64.44171443 0 49.75093716-19.37134937 96.52203229-54.54692803 131.69761095C449.58694083 837.86666941 402.81788249 857.23869772 353.06830321 857.23869772zM323.62360777 810.76293894c9.59945004 2.0116819 19.4338113 3.02397274 29.44469544 3.02397273 38.14252094 0 74.00042843-14.85168468 100.96837208-41.82030725 26.96794364-26.96930152 41.82030726-62.82856688 41.82030726-100.97312462 0-21.0734373-4.48843371-41.37017393-13.34105617-60.32533665l-6.44104836-13.79186845 120.08104753-120.08308434 13.81631009 6.5014735c19.14051175 9.00741945 39.65111262 13.5739306 60.96149795 13.57393058 38.29256539 0 74.29372798-14.91210982 101.37098003-41.98936186 27.07928884-27.07928884 41.9920776-63.08384612 41.99207761-101.38320085 0-10.28177887-1.06388982-20.37956659-3.17741185-30.22546973l-70.91874629 70.92349884-111.31804436-111.32347585 70.03137934-70.0286636c-9.13641696-1.80528592-18.48194562-2.71437876-27.98023448-2.71437876-79.05373537 0-143.36781018 64.31475375-143.36781018 143.36781017 0 20.70613391 4.31462656 40.67834001 12.8243873 59.3605712l6.24619424 13.71311211-120.69412507 120.6927672-13.71582785-6.25230465c-18.61841138-8.48667697-38.52136619-12.79044058-59.15756989-12.79044058-78.73395737 0-142.78800041 64.04793263-142.7880004 142.77374277 0 9.43718479 0.89958775 18.71957257 2.68790033 27.7976012l70.82776912-70.82505338 111.32076009 111.29835527L323.62360777 810.76293894z" /></svg>