<?xml version="1.0" standalone="no"?><!DOCTYPE svg PUBLIC "-//W3C//DTD SVG 1.1//EN" "http://www.w3.org/Graphics/SVG/1.1/DTD/svg11.dtd"><svg class="icon" width="200px" height="200.00px" viewBox="0 0 1024 1024" version="1.1" xmlns="http://www.w3.org/2000/svg"><path d="M165.73994141 466.48232422c-8.89013672 0-17.63525391-4.20380859-23.10205078-12.0515625-8.87871094-12.74501953-5.74453125-30.27480469 7.00136717-39.15351563l363.89619141-253.49853515a28.12763672 28.12763672 0 0 1 32.96337892 0.58623048l337.62041015 253.49765624c12.42158203 9.32695313 14.92998047 26.95693359 5.60390625 39.37851563s-26.95605469 14.93085937-39.37851563 5.60302734L528.99365234 219.56328126l-347.203125 241.86884766a27.98876953 27.98876953 0 0 1-16.05058593 5.0501953zM810.16103515 859.73046875H614.40576171c-15.53291016 0-28.125-12.59208984-28.12499999-28.125V635.01611328H473.43183594V831.60546875c0 15.53291016-12.59208984 28.125-28.125 28.125H245.33017578c-15.53291016 0-28.125-12.59208984-28.12500001-28.125V495.44755859c0-15.53291016 12.59208984-28.125 28.12500001-28.12499999s28.125 12.59208984 28.125 28.12499999V803.48046876h143.72666015V606.89111328c0-15.53291016 12.59208984-28.125 28.12500001-28.12499999h169.09892577c15.53291016 0 28.125 12.59208984 28.12500001 28.12499999V803.48046876h139.50615234V495.44755859c0-15.53291016 12.59208984-28.125 28.125-28.12499999s28.125 12.59208984 28.12499999 28.12499999V831.60546875c-0.00087891 15.53203125-12.59296875 28.125-28.1258789 28.125z" /></svg>