<?xml version="1.0" standalone="no"?><!DOCTYPE svg PUBLIC "-//W3C//DTD SVG 1.1//EN" "http://www.w3.org/Graphics/SVG/1.1/DTD/svg11.dtd"><svg class="icon" width="200px" height="200.00px" viewBox="0 0 1024 1024" version="1.1" xmlns="http://www.w3.org/2000/svg"><path d="M43.885714 192.261224h936.228572V898.612245H43.885714z" fill="#FFD15C" /><path d="M43.885714 898.612245v73.142857c0 22.987755 18.808163 41.795918 41.795919 41.795918h852.636734c22.987755 0 41.795918-18.808163 41.795919-41.795918V898.612245H43.885714z" fill="#FF7058" /><path d="M938.318367 10.44898H85.681633c-22.987755 0-41.795918 18.808163-41.795919 41.795918v96.130612h936.228572V52.244898c0-22.987755-18.808163-41.795918-41.795919-41.795918z" fill="#F8B64C" /><path d="M248.685714 524.538776h526.628572v323.918367H248.685714z" fill="#FFFFFF" /><path d="M744.259918 554.08849v261.22449h-463.934694v-261.22449z" fill="#84DBFF" /><path d="M154.644898 332.277551H10.44898l33.436734-183.902041h133.746939z" fill="#FF7058" /><path d="M296.75102 332.277551H154.644898l22.987755-183.902041h133.746939z" fill="#F2F2F2" /><path d="M440.946939 332.277551h-144.195919l14.628572-183.902041h133.746939z" fill="#FF7058" /><path d="M583.053061 332.277551h-142.106122l4.179592-183.902041h133.746938z" fill="#F2F2F2" /><path d="M727.24898 332.277551h-144.195919l-4.179592-183.902041h133.746939z" fill="#FF7058" /><path d="M869.355102 332.277551h-142.106122l-14.628572-183.902041h133.746939z" fill="#F2F2F2" /><path d="M1013.55102 332.277551h-144.195918l-22.987755-183.902041h133.746939z" fill="#FF7058" /><path d="M980.114286 353.17551v129.567347c-10.44898 6.269388-25.077551 10.44898-37.616327 10.44898-39.706122 0-71.053061-31.346939-71.053061-71.053061 0 39.706122-31.346939 71.053061-71.053061 71.053061s-71.053061-31.346939-71.053061-71.053061c0 39.706122-31.346939 71.053061-71.053062 71.053061s-71.053061-31.346939-71.053061-71.053061c0 39.706122-31.346939 71.053061-71.053061 71.053061s-71.053061-31.346939-71.053061-71.053061c0 39.706122-31.346939 71.053061-71.053062 71.053061s-71.053061-31.346939-71.053061-71.053061c0 39.706122-31.346939 71.053061-71.053061 71.053061s-71.053061-31.346939-71.053061-71.053061c0 39.706122-31.346939 71.053061-71.053062 71.053061-14.628571 0-27.167347-4.179592-37.616326-10.44898v-129.567347h927.869388z" fill="#F8B64C" /><path d="M154.644898 401.240816c0 39.706122 31.346939 71.053061 71.053061 71.053062s71.053061-31.346939 71.053061-71.053062v-68.963265H154.644898v68.963265zM440.946939 401.240816c0 39.706122 31.346939 71.053061 71.053061 71.053062s71.053061-31.346939 71.053061-71.053062v-68.963265H438.857143v68.963265zM727.24898 332.277551v68.963265c0 39.706122 31.346939 71.053061 71.053061 71.053062s71.053061-31.346939 71.053061-71.053062v-68.963265h-142.106122z" fill="#CDD6E0" /><path d="M10.44898 401.240816c0 39.706122 31.346939 71.053061 71.053061 71.053062s71.053061-31.346939 71.053061-71.053062v-68.963265H10.44898v68.963265zM296.75102 401.240816c0 39.706122 31.346939 71.053061 71.053062 71.053062s71.053061-31.346939 71.053061-71.053062v-68.963265h-144.195919v68.963265zM583.053061 401.240816c0 39.706122 31.346939 71.053061 71.053061 71.053062s71.053061-31.346939 71.053062-71.053062v-68.963265h-144.195919v68.963265zM869.355102 332.277551v68.963265c0 39.706122 31.346939 71.053061 71.053061 71.053062s71.053061-31.346939 71.053061-71.053062v-68.963265h-142.106122z" fill="#F1543F" /></svg>