<?xml version="1.0" standalone="no"?><!DOCTYPE svg PUBLIC "-//W3C//DTD SVG 1.1//EN" "http://www.w3.org/Graphics/SVG/1.1/DTD/svg11.dtd"><svg class="icon" width="200px" height="200.00px" viewBox="0 0 1024 1024" version="1.1" xmlns="http://www.w3.org/2000/svg"><path d="M592.544 816.33c-5.867-2.602-15.125-5.173-27.765-7.743-7.574-1.515-12.416-3.307-14.571-5.355a10.059 10.059 0 0 1-3.21-7.552c0-7.445 5.738-11.179 17.215-11.179 10.763 0 17.782 4.918 21.12 14.72l24.704-8.256c-6.954-19.445-22.613-29.173-46.922-29.173-13.739 0-24.619 3.797-32.651 11.37-8.01 7.563-12.021 16.865-12.021 27.894 0 10.89 3.349 19.168 10.069 24.843 6.71 5.653 17.973 10.122 33.76 13.397 8.47 1.76 14.176 3.648 17.141 5.643 2.955 1.994 4.448 4.8 4.448 8.448 0 3.573-1.642 6.634-4.896 9.205-3.274 2.581-8.224 3.861-14.869 3.861-13.792 0-22.187-5.77-25.227-17.344L512 855.211c2.859 11.392 8.747 19.989 17.664 25.76 8.928 5.792 19.755 8.672 32.459 8.672 16.949 0 29.717-4.086 38.357-12.267 8.63-8.16 12.928-17.867 12.928-29.067a33.173 33.173 0 0 0-6.027-19.392c-4.021-5.792-8.96-9.973-14.837-12.586z" fill="#3AAFBF" /><path d="M658.517 654.187L646.7 502.9s-6.763-23.658-16.054-29.589l-63.392-44.8s-20.277-12.672-8.458-36.33l49.29-38.603-33.226-12.95-17.739 21.974h-20.288l-10.987-32.448H503.03l-11.818 35.84H476l-14.379-27.051-44.224 20.256 54.454 35.861 82.549-0.181-0.096 21.323-71.947 0.16c-1.088 3.978-4.149 8.16-10.592 12.16l-66.773 54.101s-11.819 14.368-12.672 34.667l-12.693 133.514s-28.352 20.523 4.234 35.499c0 0 115.787 45.643 274.656-0.853 0 0 25.355-16.896 0-31.264zM541.205 614.26c-8.64 8.192-21.408 12.267-38.357 12.267-12.704 0-23.53-2.89-32.448-8.672-8.917-5.77-14.816-14.368-17.664-25.76l26.89-6.08c3.03 11.573 11.435 17.344 25.217 17.344 6.645 0 11.594-1.28 14.869-3.861 3.253-2.571 4.896-5.632 4.896-9.206a9.61 9.61 0 0 0-4.448-8.448c-2.965-2.005-8.672-3.882-17.141-5.642-15.787-3.275-27.051-7.744-33.76-13.398-6.72-5.674-10.07-13.962-10.07-24.842 0-11.03 4.011-20.32 12.022-27.904 8.032-7.563 18.901-11.36 32.64-11.36 24.32 0 39.978 9.728 46.933 29.173l-24.704 8.256c-3.339-9.803-10.368-14.72-21.12-14.72-11.477 0-17.227 3.733-17.227 11.179 0 2.976 1.067 5.493 3.222 7.552 2.154 2.048 6.997 3.84 14.57 5.354 12.64 2.56 21.899 5.131 27.766 7.744 5.877 2.614 10.826 6.795 14.837 12.587 4.032 5.781 6.027 12.245 6.027 19.392-0.022 11.179-4.32 20.885-12.95 29.045z" fill="#F4A467" /><path d="M818.07 94.912H204.362c-60.384 0-109.334 48.95-109.334 109.333v625.462c0 60.384 48.95 109.333 109.334 109.333h613.706c60.363 0 109.312-48.95 109.312-109.333V204.245c0-60.384-48.938-109.333-109.312-109.333z m-131.851 580.65c-6.219 19.542-32 43.542-171.552 48C375.115 728 335.115 690.668 360 650.668l7.115-10.678s9.77-117.322 8.885-136.885c-0.896-19.552 11.552-36.437 61.333-72 0 0 24.886-13.333 19.552-24 0 0-58.656-29.323-54.218-56 0 0-12.448-5.333 39.114-28.437 0 0 10.667-9.782 24-0.896l14.219 16s11.552-25.782 25.781-26.656c14.219-0.896 26.656-8.011 39.104 29.322L567.115 328s10.666-11.563 29.333-0.896 21.323 16.885 21.323 16.885 15.125 14.219-7.094 30.23c-22.229 15.989-36.448 26.656-36.448 26.656s-2.677 8 2.656 15.114c0 0 75.552 47.115 86.23 69.344 0 0 5.333 6.219 5.333 25.782 0 19.541-8.896 124.437 6.219 137.77 0 0 17.781 7.115 11.552 26.678z" fill="#F4A467" /><path d="M532 384.235h22.005v21.098H532z" fill="#FFFFFF" /></svg>