<?xml version="1.0" standalone="no"?><!DOCTYPE svg PUBLIC "-//W3C//DTD SVG 1.1//EN" "http://www.w3.org/Graphics/SVG/1.1/DTD/svg11.dtd"><svg class="icon" width="200px" height="200.00px" viewBox="0 0 1024 1024" version="1.1" xmlns="http://www.w3.org/2000/svg"><path d="M511.90326208 327.42810629h-0.29765588a26.36635034 26.36635034 0 0 1-26.0865541-26.34849069v-0.29765588c0-0.08632041 0.09524982-9.65893029 0.09524981-52.45290445V169.22702722a26.36635034 26.36635034 0 1 1 52.7356777 0V248.32905527c0 43.32975376-0.09227362 52.63745086-0.09822683 53.01249691a26.36932654 26.36932654 0 0 1-26.3484907 26.08655411zM511.9985119 881.13932312a26.36635034 26.36635034 0 0 1-26.36635033-26.36635034v-79.41456656c0-42.52608353-0.09227362-52.05404553-0.09524983-52.14631915s0-0.19942905 0-0.29765506a26.36635034 26.36635034 0 0 1 52.73270069-0.25896121c0 0.37504605 0.09822601 9.65000089 0.098226 52.76246676v79.35503522a26.36635034 26.36635034 0 0 1-26.36932652 26.36635034zM362.7777088 389.24526135a26.28300696 26.28300696 0 0 1-18.84161233-7.9206199c-0.06250754-0.06250754-6.76273947-6.89668478-37.02242753-37.15637365L250.96330869 288.23279098a26.36635034 26.36635034 0 0 1 37.29031814-37.28734112L344.18612744 306.87795047c30.63771113 30.63771113 37.15339663 37.28734113 37.41831025 37.55523093A26.36635034 26.36635034 0 0 1 362.7777088 389.24526135zM754.36176657 780.71025726a26.28598315 26.28598315 0 0 1-18.64515948-7.72416788L679.78113028 717.05358877c-30.25968805-30.25968805-37.0938653-36.962897-37.15934903-37.02838074a26.36635034 26.36635034 0 0 1 36.89443542-37.68024682c0.26789062 0.26193741 6.91752063 6.78059912 37.55523176 37.41830942l55.9325006 55.93250061a26.36635034 26.36635034 0 0 1-18.64218245 45.01448602zM274.69540561 780.71025726a26.28598315 26.28598315 0 0 0 18.64515866-7.72416788l55.9325006-55.9325006c30.25968805-30.25968805 37.09684148-36.962897 37.15934986-37.02838075a26.36635034 26.36635034 0 0 0-36.89443625-37.68024682c-0.26789062 0.26193741-6.91752063 6.78059912-37.55523175 37.41830942l-55.9325006 55.93547764a26.36635034 26.36635034 0 0 0 18.64515948 45.011509zM301.02008426 538.41546335h-0.29765589c-0.08632041 0-9.65893029-0.09524982-52.45290444-0.09524982H169.17940231a26.36635034 26.36635034 0 1 1 0-52.73567688h79.09905103c43.32975376 0 52.63745086 0.09227362 53.01249774 0.09822602a26.36635034 26.36635034 0 0 1 26.08655329 26.34849151v0.29765588a26.36932654 26.36932654 0 0 1-26.35742011 26.08655329zM722.88764294 538.41546335a26.36932654 26.36932654 0 0 1-26.36337414-26.09250651v-0.29765588a26.36635034 26.36635034 0 0 1 26.0865541-26.34253829c0.37504605 0 9.68571936-0.09822601 53.01547394-0.09822602h79.10202723a26.36635034 26.36635034 0 0 1 0 52.73567688H775.62629684c-42.79397333 0-52.36658405 0.09227362-52.45885766 0.09524982h-0.27682004zM661.13894782 389.24228516a26.36635034 26.36635034 0 0 1-18.83863532-44.80910376c0.26193741-0.26789062 6.78059912-6.91752063 37.41831024-37.55523093l55.93250062-55.93547764A26.36635034 26.36635034 0 1 1 772.94739389 288.23279098l-55.94143002 55.93250062c-25.55970309 25.56267929-34.31376013 34.40900994-36.45390482 36.57892071l-0.57447592 0.59531177a26.29193637 26.29193637 0 0 1-18.83863532 7.90276108z" /></svg>