<?xml version="1.0" standalone="no"?><!DOCTYPE svg PUBLIC "-//W3C//DTD SVG 1.1//EN" "http://www.w3.org/Graphics/SVG/1.1/DTD/svg11.dtd"><svg class="icon" width="200px" height="200.00px" viewBox="0 0 1024 1024" version="1.1" xmlns="http://www.w3.org/2000/svg"><path d="M292.37729263 551.34993745H187.83808899v42.96512602h104.53920364v-42.96512603z m0-243.3995247H261.02248382V195.23068618c0-5.77039718 3.54566574-10.75286865 7.57799149-10.75286865H632.15867233V141.53586578H268.6236496c-28.04088593 0.90379715-50.14915466 24.88918305-49.38440323 53.6948204V307.95041275h-31.40115738v42.98830033h104.53920364v-42.98830033z m0 121.73452377H187.83808899v42.96512603h104.53920364v-42.96512603z m517.55132675 55.45606613h-41.82958603v343.62831117c0 5.7472229-3.54566574 10.75286865-7.57799148 10.75286865H268.6236496c-4.03232575 0-7.57799149-5.00564575-7.57799149-10.75286865v-112.74290085h31.35480881v-42.94195176H187.83808899v42.94195176h31.3779831v112.74290085c-0.74157715 28.80563736 21.34351731 52.79102325 49.38440322 53.69482039h491.89739227c28.04088593-0.85744858 50.14915466-24.88918305 49.4307518-53.69482039V485.14100265z m10.82239151-210.26029586l-60.16044617-61.78264619a51.60913467 51.60913467 0 0 0-38.05217742-15.73534012 51.79452896 51.79452896 0 0 0-37.38012314 17.28801729L421.13362503 508.57020568a22.08509445 22.08509445 0 0 0-4.47263717 7.76338578L364.37979888 677.48757553a21.73748017 21.73748017 0 0 0 5.05199433 21.89970016c5.5850029 5.77039718 13.90457153 7.78656006 21.41304017 5.21421433l156.8203926-53.67164612a20.81050873 20.81050873 0 0 0 8.78305436-5.7472229l265.83223343-295.79658508a54.71448898 54.71448898 0 0 0-1.52950288-74.50532913z m-403.46431731 375.33073425l28.31897735-87.36705781 56.73065185 58.23698045-85.0496292 29.13007736z m123.1481552-50.70533752L465.44285965 522.72969436l144.95515824-161.06128692 74.96881484 76.98497772-144.93198395 160.85271836z m251.07021332-279.36601639l-0.18539428 0.16222L713.73215866 406.60334778 638.76334381 329.45615006l77.07767487-85.90707779a10.24303437 10.24303437 0 0 1 7.46212005-3.42979432 9.73320007 9.73320007 0 0 1 7.57799149 3.10535432l60.29949188 62.0607376c3.96280288 4.05550003 4.10184861 10.66017151 0.32444 14.85471726z" /></svg>