<?xml version="1.0" standalone="no"?><!DOCTYPE svg PUBLIC "-//W3C//DTD SVG 1.1//EN" "http://www.w3.org/Graphics/SVG/1.1/DTD/svg11.dtd"><svg class="icon" width="200px" height="200.00px" viewBox="0 0 1024 1024" version="1.1" xmlns="http://www.w3.org/2000/svg"><path d="M0 332.8h226.133333V1024H0zM797.866667 332.8H1024V1024H797.866667z" fill="#E8EAEA" /><path d="M0 345.6h1024c0-25.6-21.333333-46.933333-46.933333-46.933333H46.933333C21.333333 298.666667 0 320 0 345.6z" fill="#FF7058" /><path d="M226.133333 217.6h571.733334V1024H226.133333z" fill="#F2F2F2" /><path d="M829.866667 170.666667H194.133333C181.333333 170.666667 170.666667 181.333333 170.666667 194.133333c0 12.8 10.666667 23.466667 23.466666 23.466667h635.733334c12.8 0 23.466667-10.666667 23.466666-23.466667 0-12.8-10.666667-23.466667-23.466666-23.466666z" fill="#FF7058" /><path d="M64 396.8h98.133333v108.8H64zM64 548.266667h98.133333v108.8H64zM64 699.733333h98.133333v108.8H64zM64 851.2h98.133333V960H64zM861.866667 396.8H960v108.8h-98.133333zM861.866667 548.266667H960v108.8h-98.133333zM861.866667 699.733333H960v108.8h-98.133333zM861.866667 851.2H960V960h-98.133333z" fill="#54C0EB" /><path d="M290.133333 586.666667h106.666667v108.8h-106.666667z" fill="#84DBFF" /><path d="M396.8 757.333333h228.266667V1024H396.8z" fill="#40596B" /><path d="M0 979.2h1024V1024H0z" fill="#ACB3BA" /><path d="M290.133333 283.733333h106.666667v108.8h-106.666667zM290.133333 435.2h106.666667v108.8h-106.666667zM458.666667 283.733333h106.666666v108.8h-106.666666zM458.666667 435.2h106.666666v108.8h-106.666666zM458.666667 586.666667h106.666666v108.8h-106.666666zM627.2 283.733333h106.666667v108.8h-106.666667zM627.2 435.2h106.666667v108.8h-106.666667zM627.2 586.666667h106.666667v108.8h-106.666667z" fill="#84DBFF" /><path d="M294.4 2.133333h27.733333V128h-27.733333V78.933333h-51.2V128h-27.733333V2.133333h27.733333v53.333334h51.2V2.133333zM458.666667 110.933333c-12.8 12.8-27.733333 19.2-46.933334 19.2-19.2 0-34.133333-6.4-46.933333-19.2-12.8-12.8-19.2-27.733333-19.2-46.933333 0-19.2 6.4-34.133333 19.2-46.933333 12.8-10.666667 27.733333-17.066667 46.933333-17.066667 19.2 0 34.133333 6.4 46.933334 19.2 12.8 12.8 19.2 27.733333 19.2 46.933333 0 17.066667-6.4 34.133333-19.2 44.8z m-8.533334-44.8c0-10.666667-4.266667-21.333333-10.666666-29.866666-6.4-8.533333-17.066667-12.8-27.733334-12.8s-19.2 4.266667-27.733333 12.8c-6.4 8.533333-10.666667 17.066667-10.666667 29.866666s4.266667 21.333333 10.666667 27.733334c8.533333 8.533333 17.066667 12.8 27.733333 12.8s19.2-4.266667 27.733334-12.8 10.666667-17.066667 10.666666-27.733334zM552.533333 27.733333v102.4h-27.733333V27.733333h-36.266667V2.133333h100.266667v23.466667h-36.266667zM699.733333 2.133333v25.6h-64v25.6h57.6v23.466667h-57.6v25.6h64V128h-93.866666V2.133333h93.866666zM727.466667 130.133333v-128h27.733333v100.266667h53.333333V128h-81.066666z" fill="#40596B" /></svg>