<?xml version="1.0" standalone="no"?><!DOCTYPE svg PUBLIC "-//W3C//DTD SVG 1.1//EN" "http://www.w3.org/Graphics/SVG/1.1/DTD/svg11.dtd"><svg class="icon" width="200px" height="200.00px" viewBox="0 0 1024 1024" version="1.1" xmlns="http://www.w3.org/2000/svg"><path d="M871.21074219 391.0625c0-7.18417969 0.48164063-14.46591797-0.48164063-21.53583984-4.03066406-29.56113281-25.04882813-42.53466797-52.284375-30.92431641-15.75351563 6.71748047-30.07880859 16.73613281-45.20742187 24.97675781-17.87519531 9.73652344-30.01904297 22.82255859-25.15605469 44.84179688 4.47275391 20.24736328 19.31044922 26.87958984 38.43720703 27.55107422 3.73183594 0.13007813 7.37402344 2.87402344 11.1234375 4.43847656v268.01367187l-171.94394531 87.721875c-56.67626953-29.70439453-109.87470703-58.13525391-163.56533203-85.60546875-90.51855469-46.30957031-59.69707031-45.86132813-147.41015625-0.23291015-27.73388672 14.42724609-55.15751953 29.446875-91.04589844 48.64833984 0-82.51787109 0.51767578-155.64550781-0.23994141-228.76171875-0.33222656-32.13720703-2.446875-61.88994141 35.97363282-77.91328125 19.33330078-8.06220703 22.07460938-32.45449219 11.62529296-48.15351562-11.37304688-17.08417969-28.09335937-19.88085938-45.53876953-12.34863282-15.73154297 6.79394531-29.98125 16.93564453-45.30585937 24.77373047-20.221875 10.34121094-28.05908203 26.25556641-27.94658203 48.88212891 0.56777344 113.53447266-0.25048828 227.08125 0.48691406 340.61396484 0.31289062 48.07792969 22.99746094 60.32285156 67.03417969 37.26123047 47.08125-24.65332031 94.23632813-49.27851562 140.17939453-75.94541015 19.74550781-11.46269531 35.16591797-11.84941406 55.36230469-0.60820313 58.97636719 32.81308594 119.64287109 62.58164062 178.82929687 95.02998047 22.60722656 12.39521484 41.59335937 12.01992187 64.34472656-0.33925781 58.04121094-31.52636719 116.91386719-61.62451172 176.36748047-90.40429688 26.88925781-13.01660156 37.2796875-31.00517578 36.89648438-60.92753906-1.36230469-106.33535156-0.51503906-212.70058594-0.534375-319.05351563zM481.90625 598.87460938c22.44287109 21.38115234 37.06347656 21.07880859 59.76210938-0.40605469 51.39667969-48.65185547 97.39951172-102.12714844 125.95517578-167.5678711 12.97265625-29.728125 19.28320313-62.35839844 28.6171875-93.67382812-3.81972656-93.18867188-66.07705078-166.92451172-157.15722657-181.79472656-86.79199219-14.16796875-171.52558594 37.36054687-198.90791015 121.58789062-15.33691406 47.17441406-10.19003906 93.67470703 8.29335937 138.82412109 29.42402344 71.86552734 77.97919922 130.19941406 133.43642578 183.03046875z m34.89697266-372.02871094c61.72207031 2.65429688 109.84746094 57.43037109 101.74921875 119.47763672-8.24765625 63.18896484-42.12158203 115.08134766-81.28388672 163.22167968-13.54658203 16.65-33.47929688 15.54082031-49.77685547 2.09707032-34.9734375-28.85097656-82.86152344-130.02978516-83.09707031-175.56503907-0.32695313-63.51503906 49.50263672-111.93486328 112.40859375-109.23134765z" /></svg>