<?xml version="1.0" standalone="no"?><!DOCTYPE svg PUBLIC "-//W3C//DTD SVG 1.1//EN" "http://www.w3.org/Graphics/SVG/1.1/DTD/svg11.dtd"><svg class="icon" width="200px" height="200.00px" viewBox="0 0 1024 1024" version="1.1" xmlns="http://www.w3.org/2000/svg"><path d="M12.8 204.8h348.16c5.12 0 10.24-2.56 12.8-7.68l33.28-104.96c12.8-28.16 33.28-40.96 64-38.4l227.84-2.56v46.08h-217.6c-15.36 2.56-25.6 10.24-30.72 23.04l-20.48 71.68c-2.56 10.24 0 15.36 7.68 12.8h71.68l-40.96 680.96H56.32L12.8 204.8z m104.96 770.56l814.08-5.12c58.88-5.12 87.04 7.68 92.16-64l-1024 5.12c0 64 51.2 61.44 117.76 64zM588.8 883.2l322.56-2.56c58.88-5.12 71.68-38.4 74.24-107.52H514.56c-2.56 69.12 10.24 102.4 74.24 110.08z m-23.04-271.36c-38.4 2.56-61.44 20.48-64 66.56 2.56 43.52 28.16 58.88 64 64 17.92 0 35.84-7.68 48.64-20.48 15.36 12.8 30.72 17.92 48.64 20.48 17.92 0 33.28-5.12 43.52-15.36 10.24 10.24 23.04 15.36 43.52 15.36 20.48 0 38.4-7.68 46.08-15.36 10.24 12.8 25.6 17.92 43.52 17.92 17.92-2.56 30.72-7.68 43.52-15.36 15.36 12.8 33.28 17.92 51.2 15.36 40.96-10.24 58.88-33.28 56.32-71.68-5.12-40.96-28.16-56.32-61.44-58.88-17.92-2.56-33.28 5.12-48.64 17.92-12.8-12.8-28.16-17.92-46.08-15.36-15.36-2.56-28.16 2.56-43.52 15.36-10.24-10.24-23.04-15.36-40.96-15.36-15.36 0-30.72 2.56-43.52 15.36-2.56 2.56-2.56 0-5.12 0-12.8-12.8-28.16-17.92-48.64-17.92-17.92 0-33.28 7.68-43.52 20.48-7.68-17.92-25.6-25.6-43.52-23.04z m53.76-143.36c-71.68 7.68-104.96 46.08-102.4 115.2h471.04c-2.56-69.12-35.84-107.52-94.72-115.2H619.52zM61.44 258.56l7.68 128c2.56 7.68 5.12 10.24 12.8 10.24l227.84-2.56c5.12 0 7.68-2.56 10.24-7.68l33.28-125.44c0-5.12-2.56-7.68-7.68-7.68H66.56c-2.56 0-5.12 0-5.12 5.12z m394.24 128l7.68-125.44c-2.56-7.68-5.12-7.68-10.24-7.68h-33.28c-5.12 0-7.68 2.56-10.24 7.68L371.2 384c0 5.12 2.56 7.68 7.68 7.68h69.12c5.12 0 5.12-2.56 7.68-5.12z" fill="#FF7F0E" /></svg>