<?xml version="1.0" standalone="no"?><!DOCTYPE svg PUBLIC "-//W3C//DTD SVG 1.1//EN" "http://www.w3.org/Graphics/SVG/1.1/DTD/svg11.dtd"><svg class="icon" width="200px" height="200.00px" viewBox="0 0 1024 1024" version="1.1" xmlns="http://www.w3.org/2000/svg"><path d="M705.35937527 872.35156223H318.64062473c-33.39843723 0-61.52343777-28.12499973-61.52343696-61.52343696V213.17187473c0-33.39843723 28.12499973-61.52343777 61.52343696-61.52343696h386.71875054c33.39843723 0 61.52343777 28.12499973 61.52343696 61.52343696v597.65625054c0 33.39843723-28.12499973 61.52343777-61.52343696 61.52343696z m-386.71875054-667.96874946c-5.2734375 0-8.78906277 3.51562527-8.78906196 8.78906196v597.65625054c0 5.2734375 3.51562527 8.78906277 8.78906196 8.78906196h386.71875054c5.2734375 0 8.78906277-3.51562527 8.78906196-8.78906196V213.17187473c0-5.2734375-3.51562527-8.78906277-8.78906196-8.78906196H318.64062473zM512 722.9375m-35.15625027 0a35.15625027 35.15625027 0 1 0 70.31250054 0 35.15625027 35.15625027 0 1 0-70.31250054 0ZM582.31249973 292.27343723h-140.62499946c-14.06250027 0-26.3671875-12.30468723-26.3671875-26.3671875s12.30468723-26.3671875 26.3671875-26.3671875h140.62499946c14.06250027 0 26.3671875 12.30468723 26.3671875 26.3671875s-12.30468723 26.3671875-26.3671875 26.3671875z" /></svg>