<?xml version="1.0" standalone="no"?><!DOCTYPE svg PUBLIC "-//W3C//DTD SVG 1.1//EN" "http://www.w3.org/Graphics/SVG/1.1/DTD/svg11.dtd"><svg class="icon" width="200px" height="200.00px" viewBox="0 0 1024 1024" version="1.1" xmlns="http://www.w3.org/2000/svg"><path d="M685.03466797 858.06933594H240.08837891c-40.86399079 0-74.15771484-33.29372407-74.15771485-74.15771485V240.08837891c0-40.86399079 33.29372407-74.15771484 74.15771485-74.15771485h444.94628906c40.86399079 0 74.15771484 33.29372407 74.15771484 74.15771485v173.03466796h-49.43847656V240.08837891c0-13.59558106-11.12365723-24.71923828-24.71923828-24.71923829H240.08837891c-13.59558106 0-24.71923828 11.12365723-24.71923829 24.71923829v543.82324218c0 13.59558106 11.12365723 24.71923828 24.71923829 24.71923828h444.94628906c13.59558106 0 24.71923828-11.12365723 24.71923828-24.71923828V610.95420075h49.43847656V783.91162109c0 40.86399079-33.29372407 74.15771484-74.15771484 74.15771485zM586.15771484 536.10125732l-247.19238281 0.7724762c-13.67282868 0-24.71923828-11.04640961-24.71923828-24.71923828s11.04640961-24.71923828 24.71923828-24.71923828l247.19238281-0.7724762c13.67282868 0 24.71923828 11.04640961 24.71923829 24.71923828s-11.04640961 24.71923828-24.71923829 24.71923828zM565.5326004 644.86590576H359.59044647c-11.35540009 0-20.62511445-11.04640961-20.62511444-24.71923828s9.19246674-24.71923828 20.62511444-24.71923828h206.01940155c11.35540009 0 20.62511445 11.04640961 20.62511445 24.71923828s-9.26971435 24.71923828-20.70236208 24.71923828zM462.56152344 536.71923828c-5.17559052 0-10.35118103-1.62220001-14.83154297-4.94384765-10.89191438-8.18824768-13.13209534-23.71501923-4.94384766-34.6069336l120.50628662-160.67504883c8.18824768-10.89191438 23.71501923-13.13209534 34.6069336-4.94384765 10.89191438 8.18824768 13.13209534 23.71501923 4.94384765 34.60693359l-120.50628662 160.67504883c-4.86660004 6.48880005-12.28237152 9.88769531-19.77539062 9.88769531zM462.56152344 536.71923828c-7.49301911 0-14.9087906-3.39889526-19.77539063-9.88769531l-120.50628662-160.67504883c-8.18824768-10.89191438-5.94806672-26.41868591 4.94384766-34.60693359 10.89191438-8.18824768 26.41868591-5.94806672 34.60693359 4.94384765l120.50628662 160.67504883c8.18824768 10.89191438 5.94806672 26.41868591-4.94384765 34.6069336-4.48036193 3.32164765-9.65595246 4.94384766-14.83154297 4.94384765zM462.56152344 737.56304932c-13.67282868 0-24.71923828-11.04640961-24.71923828-24.71923828V512c0-13.67282868 11.04640961-24.71923828 24.71923828-24.71923828s24.71923828 11.04640961 24.71923828 24.71923828v200.84381104c0 13.67282868-11.04640961 24.71923828-24.71923828 24.71923828zM858.06933594 536.71923828H660.31542969c-13.67282868 0-24.71923828-11.04640961-24.71923828-24.71923828s11.04640961-24.71923828 24.71923828-24.71923828h197.75390625c13.67282868 0 24.71923828 11.04640961 24.71923828 24.71923828s-11.04640961 24.71923828-24.71923828 24.71923828zM798.04793549 596.74063873c-6.33430481 0-12.66860962-2.39467621-17.45796205-7.26127624-9.65595246-9.65595246-9.65595246-25.33721924 0-34.99317169l60.02140046-60.02140046c9.65595246-9.65595246 25.33721924-9.65595246 34.9931717 1e-8s9.65595246 25.33721924 0 34.99317168L815.58314514 589.4793625c-4.86660004 4.86660004-11.20090485 7.26127625-17.53520966 7.26127623zM858.06933594 536.71923828c-6.33430481 0-12.66860962-2.39467621-17.45796204-7.26127625l-60.02140046-60.02140045c-9.65595246-9.65595246-9.65595246-25.33721924 1e-8-34.99317169s25.33721924-9.65595246 34.99317169 0l60.02140046 60.02140046c9.65595246 9.65595246 9.65595246 25.33721924-1e-8 34.99317168-4.86660004 4.86660004-11.20090485 7.26127625-17.53520965 7.26127625z" /></svg>