<?xml version="1.0" standalone="no"?><!DOCTYPE svg PUBLIC "-//W3C//DTD SVG 1.1//EN" "http://www.w3.org/Graphics/SVG/1.1/DTD/svg11.dtd"><svg class="icon" width="200px" height="200.00px" viewBox="0 0 1024 1024" version="1.1" xmlns="http://www.w3.org/2000/svg"><path d="M858.15430832 669.96365738V255.30615997c0-8.41999055-6.82868958-15.24868012-15.24868011-15.24868011H182.80926895c-8.41999055 0-15.24868012 6.82868958-15.24868011 15.24868012v414.64977264c0 8.41999055 6.82868958 15.24868012 15.24868011 15.24868012h305.32894135v74.82976912H398.7395401c-4.24089431 0-7.67068863 3.43751907-7.67068863 7.67068864v34.08937454c0 4.24089431 3.43751907 7.67068863 7.67068864 7.67068863h230.0125122c4.24089431 0 7.67068863-3.43751907 7.67068862-7.67068863v-34.08937454c0-4.24089431-3.43751907-7.67068863-7.67068861-7.67068864H537.57668686v-74.82976912h305.32894135c8.41999055 0 15.24868012-6.82096481 15.24868011-15.24095536zM217.00679016 289.50368118h591.7090416v346.26245499H217.00679016V289.50368118z" /></svg>