<?xml version="1.0" standalone="no"?><!DOCTYPE svg PUBLIC "-//W3C//DTD SVG 1.1//EN" "http://www.w3.org/Graphics/SVG/1.1/DTD/svg11.dtd"><svg class="icon" width="200px" height="200.00px" viewBox="0 0 1024 1024" version="1.1" xmlns="http://www.w3.org/2000/svg"><path d="M214.99835205 854.60864258l-14.83154297-94.55108643 195.77636719-269.19250488a201.48651123 201.48651123 0 0 1 12.23602295-220.24841309 202.30224609 202.30224609 0 0 1 133.11309815-81.57348633c53.76434326-8.52813721 107.52868653 4.44946289 151.65252685 36.33728028s73.04534912 79.34875489 81.57348633 133.11309814c8.52813721 53.76434326-4.44946289 107.52868653-36.33728027 151.65252686a202.30224609 202.30224609 0 0 1-133.11309815 81.57348633c-31.51702881 4.82025146-63.77563477 2.59552002-94.18029786-7.04498291l-11.12365722 15.20233154 0.74157715 68.22509765-71.56219483 28.9215088-109.75341796 151.28173828-104.19158936 6.30340576z m24.10125732-84.9105835l7.41577149 45.97778321 53.39355469-3.33709718 106.04553223-145.71990966 57.84301758-23.35968017-0.74157716-55.24749757 34.85412598-48.20251464 13.34838868 5.56182861c27.80914307 11.12365723 58.21380615 14.4607544 88.24768066 10.0112915 44.12384033-7.04498291 82.68585205-30.77545166 109.01184082-66.74194336 26.32598877-35.9664917 36.70806885-80.09033203 29.66308594-124.21417235-7.04498291-44.12384033-30.77545166-82.68585205-66.74194336-109.01184083s-80.09033203-36.70806885-124.21417237-29.66308594c-44.12384033 6.67419434-83.05664063 30.40466309-109.01184082 66.74194336-26.32598877 35.9664917-37.07885742 80.09033203-30.03387451 123.8433838 3.70788575 23.35968018 12.23602295 45.60699463 25.21362305 65.25878905l7.04498291 10.75286866-201.33819581 277.34985351zM637.69732666 411.14550781c-3.70788575 0-7.78656006-1.11236573-10.75286866-3.70788574l-99.00054931-71.9329834a18.68774414 18.68774414 0 0 1-7.04498291-20.39337158c8.89892578-30.77545166 35.22491455-53.76434326 67.11273193-58.9553833 22.24731445-3.33709717 44.12384033 1.85394287 61.9216919 14.83154297 18.16864013 12.9776001 30.03387451 32.62939453 33.37097168 54.50592041 4.82025146 31.51702881-8.89892578 63.77563477-35.22491455 81.94427491a15.57312012 15.57312012 0 0 1-10.38208008 3.70788573z m-76.01165772-96.77581787l74.899292 54.50592041a46.38565063 46.38565063 0 0 0-8.15734864-67.48352051c-10.01129151-7.41577148-22.24731445-10.01129151-34.4833374-8.15734863-13.34838867 2.22473145-25.21362305 10.01129151-32.25860595 21.13494873zM758.20361328 845.7097168h-164.25933838c-10.38208008 0-18.53942872-8.15734864-18.53942871-18.53942872s8.15734864-18.53942872 18.53942871-18.53942871h164.25933838c10.38208008 0 18.53942872 8.15734864 18.53942872 18.53942872s-8.15734864 18.53942872-18.53942872 18.53942871zM694.05718994 771.55200195h-97.14660645c-10.38208008 0-18.53942872-8.15734864-18.5394287-18.53942871s8.15734864-18.53942872 18.5394287-18.53942871h97.14660645c10.38208008 0 18.53942872 8.15734864 18.53942871 18.53942872s-8.52813721 18.53942872-18.53942871 18.5394287z" /></svg>