<?xml version="1.0" standalone="no"?><!DOCTYPE svg PUBLIC "-//W3C//DTD SVG 1.1//EN" "http://www.w3.org/Graphics/SVG/1.1/DTD/svg11.dtd"><svg class="icon" width="200px" height="178.24px" viewBox="0 0 1149 1024" version="1.1" xmlns="http://www.w3.org/2000/svg"><path d="M627.655631 231.735551a28.182249 28.182249 0 0 1-56.319976 0c0-15.53808 21.147817-49.419109 28.182249-49.419109s28.137727 33.836507 28.137727 49.419109z m19.545035 150.527935a47.771805 47.771805 0 0 1-95.543611 0c0-26.445902 35.884506-83.567268 47.682762-83.567268s47.816327 57.254932 47.816327 83.567268z m30.274769-376.297576a20.212861 20.212861 0 0 0-28.716509 0L597.60347 56.987801a20.212861 20.212861 0 0 0 0 28.71651l25.510945 25.510945L702.986381 31.343291 677.475435 5.832345z m284.048572 28.182249h-212.056951a56.409019 56.409019 0 0 0-40.069548 16.473036l-53.470585 53.693194a56.453541 56.453541 0 0 0 0 79.871966l205.334171 205.111563a56.453541 56.453541 0 0 0 79.871966 0l159.699409-159.699409a56.453541 56.453541 0 0 0 0-79.871965l-99.283436-99.105349a56.409019 56.409019 0 0 0-40.069547-16.473036z m-40.514765 295.223524a40.959982 40.959982 0 0 1-57.878235 0 115.400298 115.400298 0 0 1-21.771121-79.871965 114.866037 114.866037 0 0 1 79.871965 21.771121 41.227113 41.227113 0 0 1 0 57.878235z m43.319634-235.163724a21.103295 21.103295 0 0 1-21.147817 21.147817h-155.158194a21.147817 21.147817 0 1 1 0-42.251112h155.158194a21.192339 21.192339 0 0 1 21.147817 21.147817z" fill="#0088FF" /><path d="M1148.648796 522.551425a71.546404 71.546404 0 0 0-71.635448-71.635447h-90.201004l-2.671303-23.908164H903.645772l5.69878 42.918938a62.330408 62.330408 0 0 1-44.922415 64.556494H286.708301a62.330408 62.330408 0 0 1-45.100502-64.556494l21.147817-157.695931a72.570403 72.570403 0 0 1 75.686923-56.052845l65.49145-8.904344c40.91546-5.43165 82.231616-8.904344 123.547772-10.373561V158.808974a1351.723934 1351.723934 0 0 0-166.73384 16.205906l-81.964486 13.356516a95.410045 95.410045 0 0 0-94.875785 84.90292l-19.945731 177.775227H74.161611a71.635447 71.635447 0 1 0 0 143.226373h3.161042a142.11333 142.11333 0 0 0-27.158249 83.478224v95.454567a143.270894 143.270894 0 0 0 77.645879 127.332119v75.686923a47.63824 47.63824 0 0 0 47.682762 47.682762h95.54361a47.63824 47.63824 0 0 0 47.682762-47.682762v-59.659104h513.424473v59.659104a47.63824 47.63824 0 0 0 47.682762 47.682762h95.677175a47.63824 47.63824 0 0 0 47.682762-47.682762v-75.686923a142.959242 142.959242 0 0 0 77.690401-127.332119v-95.454567a142.11333 142.11333 0 0 0-27.113727-83.567268h3.205564a71.590925 71.590925 0 0 0 71.769012-71.635447zM271.170221 797.205914a83.567268 83.567268 0 1 1 83.567268-83.567268 83.656311 83.656311 0 0 1-83.567268 83.567268z m608.789996 0a83.567268 83.567268 0 1 1 83.567268-83.567268 83.656311 83.656311 0 0 1-83.567268 83.567268z" fill="#0088FF" /></svg>