<?xml version="1.0" standalone="no"?><!DOCTYPE svg PUBLIC "-//W3C//DTD SVG 1.1//EN" "http://www.w3.org/Graphics/SVG/1.1/DTD/svg11.dtd"><svg class="icon" width="200px" height="200.00px" viewBox="0 0 1024 1024" version="1.1" xmlns="http://www.w3.org/2000/svg"><path d="M516 126c0.6 0 1.2 0 1.8 0.1 0.3 0 0.6 0.1 0.9 0.1 0.6 0.1 1.2 0.3 1.8 0.4 0.4 0.1 0.7 0.2 1.1 0.3l-3.3-1.3c-0.2-0.1-0.4-0.1-0.5-0.2-0.2-0.1-0.4-0.1-0.5-0.1-0.6-0.2-1.2-0.3-1.8-0.4-0.2 0-0.3-0.1-0.5-0.1h-0.4c-0.6-0.1-1.2-0.1-1.8-0.1h-0.9c-0.9 0.1-1.8 0.2-2.8 0.4l-314.4 81.8c-1 0.3-2 0.7-3 1.1-0.3 0.1-0.5 0.3-0.8 0.4-0.3 0.2-0.7 0.3-1 0.5l-0.9 0.6c-0.4 0.3-0.8 0.5-1.1 0.8-0.2 0.2-0.4 0.3-0.6 0.4-0.4 0.4-0.8 0.8-1.3 1.2-0.1 0.2-0.3 0.3-0.4 0.4 0 0.1-0.1 0.1-0.2 0.2-0.5 0.6-1.1 1.3-1.5 1.9-0.1 0.1-0.2 0.3-0.3 0.4-0.1 0.2-0.3 0.4-0.4 0.7-0.2 0.3-0.4 0.7-0.6 1-0.2 0.4-0.4 0.9-0.6 1.3-0.1 0.2-0.2 0.5-0.3 0.7-0.1 0.1-0.1 0.2-0.2 0.4-0.3 0.8-0.6 1.7-0.8 2.5 0 0.1-0.1 0.3-0.1 0.4-0.2 0.8-0.3 1.5-0.4 2.3-0.1 0.4-0.2 0.9-0.2 1.3-0.1 1.2-0.1 2.5 0.1 3.8L246.2 812c0.4 3.3 1.5 6.1 3.1 8.4 1.7 2.3 3.8 4 6.4 5l3.3 1.3c-5-2-8.8-6.9-9.5-13.4l-66.1-582.8c-0.1-1.3-0.2-2.5-0.1-3.8 0-0.4 0.1-0.8 0.2-1.3 0.1-0.8 0.2-1.6 0.4-2.4 0-0.1 0.1-0.3 0.1-0.4 0.3-1 0.6-2 1-2.9 0.1-0.2 0.2-0.5 0.3-0.7 0.4-0.8 0.8-1.6 1.2-2.3 0.1-0.2 0.3-0.4 0.4-0.7 0.6-0.9 1.2-1.7 1.9-2.5 0.1-0.2 0.3-0.3 0.5-0.5 0.6-0.6 1.2-1.2 1.8-1.7 0.4-0.3 0.8-0.6 1.1-0.8 0.6-0.4 1.2-0.8 1.8-1.1 0.3-0.1 0.5-0.3 0.8-0.4 1-0.5 2-0.9 3-1.1l314.4-81.8c0.9-0.2 1.9-0.4 2.8-0.4 0.5 0.3 0.7 0.3 1 0.3z" fill="#7BB7FF" /><path d="M512.4 126.5c9.2-2.4 17.6 3.8 18.7 14l66.1 582.8c1.1 10.1-5.4 20.2-14.6 22.6l-314.4 81.8c-9.2 2.4-17.6-3.8-18.7-14l-66.1-582.8c-1.1-10.1 5.4-20.2 14.6-22.6l314.4-81.8z" fill="#D5E1FF" /><path d="M253.9 283.5c3.1-0.8 6.4-0.3 9.1 1.7 5.4 4 6.4 12.6 2.2 19.1L252.3 326c-0.6 0.9-1.4 1.5-2.3 1.8s-1.8 0.1-2.5-0.5l-17-13.9c-5.4-4-6.4-12.6-2.2-19.1 2.1-3.3 5.1-5.4 8.2-6.2 3.1-0.8 6.4-0.3 9.1 1.7 2.2-3.4 5.2-5.5 8.3-6.3zM417.6 383.7c11.2-2.9 22.9-1.1 32.5 6 19.2 14.3 22.7 44.7 7.7 68l-46 77.3c-2 3.3-4.9 5.5-8.1 6.3-3.1 0.8-6.4 0.3-9-1.9l-60.5-49.6c-19.2-14.3-22.7-44.7-7.7-68 7.5-11.6 18.2-19.2 29.4-22.1 11.2-2.9 22.8-1.1 32.4 5.9 7.5-11.5 18.1-19 29.3-21.9z" fill="#FF7777" /><path d="M244.2 230.8l18.1 38.3-8.3 2.1-3.9-8.1-15 3.9-1.9 9.5-7.8 2 9.1-45.4 9.7-2.3z m-7.8 28.8l10.9-2.8-7.2-16.5-0.2 0.1-3.5 19.2" fill="#203040" /><path d="M519.7 664.5c-3.1 0.8-6.4 0.3-9.1-1.7-5.4-4-6.4-12.6-2.2-19.1l12.9-21.7c0.6-0.9 1.4-1.5 2.3-1.8s1.8-0.1 2.5 0.5l17 13.9c5.4 4 6.4 12.6 2.2 19.1-2.1 3.3-5.1 5.4-8.2 6.2-3.1 0.8-6.4 0.3-9.1-1.7-2.1 3.3-5.1 5.4-8.3 6.3z" fill="#FF7777" /><path d="M529.5 717.1l-18.1-38.3 8.3-2.1 3.9 8.1 15-3.9 1.9-9.5 7.8-2-9.1 45.4-9.7 2.3z m7.7-28.8l-10.9 2.8 7.2 16.5 0.2-0.1 3.5-19.2" fill="#203040" /><path d="M643.8 132.4l1.8 0.3 0.9 0.3c0.6 0.2 1.2 0.4 1.7 0.7 0.3 0.2 0.7 0.3 1 0.5l-3.1-1.8c-0.2-0.1-0.3-0.2-0.5-0.3s-0.3-0.1-0.5-0.2c-0.6-0.3-1.1-0.5-1.7-0.7-0.2 0-0.3-0.1-0.4-0.2-0.1 0-0.3 0-0.4-0.1l-1.8-0.3c-0.3 0-0.6-0.1-0.8-0.1-0.9-0.1-1.8-0.1-2.8 0.1l-322.6 37.9c-1.1 0.1-2.1 0.4-3.1 0.7l-0.9 0.3c-0.3 0.1-0.7 0.2-1.1 0.4-0.3 0.1-0.6 0.3-0.9 0.5-0.4 0.2-0.8 0.4-1.2 0.7l-0.6 0.3c-0.5 0.3-0.9 0.7-1.4 1.1-0.2 0.1-0.3 0.2-0.5 0.4-0.1 0-0.1 0.1-0.2 0.1-0.6 0.5-1.2 1.1-1.8 1.7-0.1 0.1-0.2 0.3-0.3 0.4-0.2 0.2-0.3 0.4-0.5 0.6-0.3 0.3-0.5 0.6-0.8 0.9-0.3 0.4-0.5 0.8-0.8 1.2-0.1 0.2-0.3 0.4-0.4 0.7-0.1 0.1-0.2 0.2-0.2 0.3-0.4 0.8-0.8 1.6-1.1 2.4-0.1 0.1-0.1 0.3-0.2 0.4-0.3 0.7-0.5 1.5-0.7 2.2-0.1 0.4-0.3 0.8-0.4 1.3-0.3 1.2-0.4 2.5-0.4 3.7l-14.5 586.4c-0.1 3.3 0.6 6.3 2 8.8 1.3 2.5 3.3 4.5 5.6 5.9l3.1 1.8c-4.7-2.7-7.7-8.1-7.6-14.6l14.5-586.4c0-1.3 0.2-2.5 0.4-3.7 0.1-0.4 0.3-0.8 0.4-1.2 0.2-0.8 0.4-1.6 0.7-2.3 0.1-0.1 0.1-0.3 0.2-0.4 0.4-0.9 0.8-1.9 1.4-2.7 0.1-0.2 0.3-0.4 0.4-0.7 0.5-0.7 1-1.5 1.5-2.1 0.2-0.2 0.3-0.4 0.5-0.6 0.7-0.8 1.5-1.5 2.3-2.2 0.2-0.1 0.3-0.3 0.5-0.4 0.7-0.5 1.3-1 2-1.4 0.4-0.2 0.8-0.5 1.2-0.7 0.6-0.3 1.3-0.6 2-0.9l0.9-0.3c1-0.3 2.1-0.6 3.1-0.7l322.6-37.9c1-0.1 1.9-0.1 2.8-0.1 0.1-0.1 0.4-0.1 0.7 0z" fill="#7BB7FF" /><path d="M640.1 132.3c9.5-1.1 16.9 6.2 16.6 16.4l-14.5 586.4c-0.3 10.2-8.1 19.3-17.6 20.4L302 793.4c-9.5 1.1-16.9-6.2-16.6-16.4l14.5-586.4c0.3-10.2 8.1-19.3 17.6-20.4l322.6-37.9z" fill="#D5E1FF" /><path d="M362.6 252.4c3.2-0.4 6.4 0.6 8.8 2.9 4.8 4.7 4.6 13.3-0.5 19.2l-15.8 19.7c-0.7 0.8-1.6 1.3-2.5 1.4s-1.8-0.2-2.4-0.9l-14.9-16.1c-4.8-4.7-4.6-13.3 0.5-19.2 2.5-2.9 5.8-4.6 9-5s6.4 0.6 8.8 2.9c2.5-2.8 5.7-4.5 9-4.9zM510.9 374.1c11.5-1.3 22.9 2 31.4 10.4 17.1 16.8 16.3 47.4-1.7 68.4l-56.2 70.3c-2.4 3-5.7 4.8-8.9 5.1-3.2 0.4-6.4-0.6-8.7-3.1l-53.1-57.4c-17.1-16.8-16.3-47.4 1.7-68.4 9-10.5 20.6-16.6 32.1-17.9s22.8 2 31.3 10.3c9.1-10.3 20.6-16.3 32.1-17.7z" fill="#FF7777" /><path d="M360.1 198.9l12.7 40.4-8.5 1-2.7-8.5-15.4 1.8-3.2 9.2-8 0.9 15.2-43.7 9.9-1.1z m-11.6 27.5l11.2-1.3-4.8-17.3h-0.2l-6.2 18.6" fill="#203040" /><path d="M573.6 666.2c-3.2 0.4-6.4-0.6-8.8-2.9-4.8-4.7-4.6-13.3 0.5-19.2l15.8-19.7c0.7-0.8 1.6-1.3 2.5-1.4 0.9-0.1 1.8 0.2 2.4 0.9l14.9 16.1c4.8 4.7 4.6 13.3-0.5 19.2-2.5 2.9-5.8 4.6-9 5s-6.4-0.6-8.8-2.9c-2.5 2.9-5.8 4.6-9 4.9z" fill="#FF7777" /><path d="M576 719.7l-12.7-40.4 8.5-1 2.7 8.5L590 685l3.2-9.2 8-0.9-15.2 43.6-10 1.2z m11.7-27.4l-11.2 1.3 4.8 17.3h0.2l6.2-18.6" fill="#203040" /><path d="M790.4 153.1c0.6 0.2 1.2 0.3 1.8 0.6 0.3 0.1 0.6 0.2 0.8 0.4 0.6 0.3 1.1 0.6 1.6 0.9 0.3 0.2 0.7 0.4 1 0.6l-2.8-2.2c-0.2-0.1-0.3-0.2-0.5-0.3-0.1-0.1-0.3-0.2-0.5-0.3-0.5-0.3-1-0.6-1.6-0.9-0.1-0.1-0.3-0.2-0.4-0.2-0.1-0.1-0.3-0.1-0.4-0.1l-1.8-0.6c-0.3-0.1-0.5-0.2-0.8-0.2-0.9-0.2-1.8-0.3-2.8-0.3l-324.8-5.2c-1.1 0-2.1 0.1-3.2 0.3-0.3 0.1-0.6 0.1-0.9 0.2-0.4 0.1-0.7 0.1-1.1 0.2-0.3 0.1-0.7 0.3-1 0.4-0.4 0.2-0.9 0.3-1.3 0.5-0.2 0.1-0.5 0.2-0.7 0.3l-1.5 0.9-0.6 0.3c-0.1 0-0.1 0.1-0.2 0.1-0.7 0.4-1.3 0.9-2 1.5-0.1 0.1-0.2 0.2-0.4 0.3-0.2 0.2-0.4 0.3-0.6 0.5-0.3 0.3-0.6 0.5-0.9 0.8s-0.6 0.7-0.9 1.1c-0.2 0.2-0.4 0.4-0.5 0.6l-0.3 0.3c-0.5 0.7-1 1.4-1.4 2.2-0.1 0.1-0.2 0.3-0.3 0.4-0.4 0.7-0.7 1.4-1 2.1-0.2 0.4-0.4 0.8-0.5 1.2-0.4 1.2-0.7 2.4-0.9 3.6l-92 579.3c-0.5 3.2-0.2 6.3 0.8 8.9 1 2.7 2.6 4.9 4.8 6.6l2.8 2.2c-4.3-3.3-6.6-9-5.6-15.5l92.1-579.3c0.2-1.2 0.5-2.5 0.9-3.6 0.1-0.4 0.4-0.8 0.5-1.2 0.3-0.7 0.6-1.5 1-2.2 0.1-0.1 0.2-0.2 0.2-0.4 0.5-0.9 1.1-1.7 1.7-2.5 0.2-0.2 0.3-0.4 0.5-0.6 0.6-0.7 1.2-1.3 1.8-1.9 0.2-0.2 0.4-0.4 0.6-0.5 0.8-0.7 1.7-1.3 2.5-1.9l0.6-0.3c0.7-0.4 1.5-0.8 2.2-1.1 0.4-0.2 0.9-0.4 1.3-0.5 0.7-0.2 1.4-0.5 2.1-0.6 0.3-0.1 0.6-0.1 0.9-0.2 1-0.2 2.1-0.3 3.2-0.3l324.8 5.2c1 0 1.9 0.1 2.8 0.3 0.4-0.1 0.6 0 0.9 0.1z" fill="#7BB7FF" /><path d="M786.8 152.6c9.5 0.2 15.9 8.4 14.3 18.5L709 750.4c-1.6 10.1-10.6 18.1-20.1 17.9L364.1 763c-9.5-0.2-15.9-8.4-14.3-18.5l92.1-579.3c1.6-10.1 10.6-18.1 20.1-17.9l324.8 5.3z" fill="#D5E1FF" /><path d="M495.8 234.8c3.2 0.1 6.3 1.4 8.3 4.1 4.1 5.3 2.8 13.8-3 18.9l-18.2 17.4c-0.8 0.7-1.7 1.1-2.7 1.1-0.9 0-1.8-0.4-2.3-1.2l-12.6-17.9c-4.1-5.3-2.8-13.8 3-18.9 2.9-2.6 6.4-3.8 9.6-3.8 3.2 0.1 6.3 1.4 8.3 4 2.9-2.5 6.3-3.8 9.6-3.7zM626.7 375.1c11.6 0.2 22.4 5 29.7 14.5 14.7 18.9 9.9 49.2-10.7 67.5l-65 62.2c-2.8 2.7-6.2 4-9.5 3.9-3.2-0.1-6.2-1.5-8.2-4.2l-45-64c-14.7-18.9-9.9-49.2 10.7-67.5 10.3-9.2 22.6-13.7 34.2-13.5 11.5 0.2 22.3 5 29.7 14.4 10.3-9.1 22.5-13.5 34.1-13.3z" fill="#FF7777" /><path d="M500.4 181.5l7.2 41.8-8.5-0.1-1.6-8.8-15.5-0.4-4.3 8.7-8.1-0.1 20.9-41.3 9.9 0.2z m-15.1 25.6l11.3 0.2-2.5-17.8h-0.2l-8.6 17.6" fill="#203040" /><path d="M650.1 672.9c-3.2-0.1-6.3-1.4-8.3-4.1-4.1-5.3-2.8-13.8 3-18.9l18.2-17.4c0.8-0.7 1.7-1.1 2.7-1.1s1.8 0.4 2.3 1.2l12.6 17.9c4.1 5.3 2.8 13.8-3 18.9-2.9 2.6-6.4 3.8-9.6 3.8-3.2-0.1-6.3-1.4-8.3-4-2.9 2.5-6.4 3.8-9.6 3.7z" fill="#FF7777" /><path d="M645.4 726.2l-7.2-41.8 8.5 0.1 1.6 8.8 15.5 0.3 4.3-8.7 8.1 0.1-20.9 41.3-9.9-0.1z m15.2-25.6l-11.3-0.2 2.5 17.8h0.2l8.6-17.6" fill="#203040" /><path d="M611.3 877.5l-83.5-82.2 57.4-199.2 83.6 82.3z" fill="#7BB7FF" /><path d="M668.8 678.4l-83.6-82.3 192.1 27 83.5 82.2z" fill="#BBD2FF" /><path d="M860.8 705.3l-57.5 199.2-192-27 57.5-199.1z" fill="#D5E1FF" /><path d="M737.4 662.9c-23.7-4.6-48.8-14.5-54.6-23-6.1-9 12.1-15.6 47.4-5.5 31.8 9.1 49.4 25.4 36.8 30.1-5 1.8-15.9 1-29.6-1.6z" fill="#DB3737" /><path d="M737.1 664.1c-23.7-4.6-47.8-15.1-53.9-23.4-6.1-8.3 8.2-11.3 31.9-6.7s47.8 15.1 53.9 23.4c6 8.3-8.2 11.3-31.9 6.7z" fill="#FF7777" /><path d="M714.7 720.7c12.8 1.8 20 14 16.2 27.2-3.8 13.3-17.3 22.5-30.1 20.7-12.7-1.8-20-14-16.2-27.2 3.9-13.2 17.4-22.5 30.1-20.7zM691.8 800.9c12.8 1.8 20 14 16.2 27.2s-17.3 22.5-30.1 20.7c-12.7-1.8-20-14-16.2-27.2 3.9-13.2 17.4-22.5 30.1-20.7zM801.8 732.8c12.8 1.8 20 14 16.2 27.2-3.8 13.3-17.3 22.5-30.1 20.7-12.7-1.8-20-14-16.2-27.2 3.9-13.2 17.3-22.5 30.1-20.7zM778.7 813.3c12.8 1.8 20 14 16.2 27.2s-17.3 22.5-30.1 20.7c-12.7-1.8-20-14-16.2-27.2 3.9-13.2 17.4-22.5 30.1-20.7z" fill="#203040" /><path d="M608.3 779.9c4.4 5.9 4.4 23.2 0 38.7s-11.6 23.3-16.1 17.4c-4.4-5.9-4.4-23.2 0-38.7 4.4-15.5 11.6-23.3 16.1-17.4zM604.6 707.3c4.4 5.9 4.4 23.2 0 38.7s-11.6 23.3-16.1 17.4-4.4-23.2 0-38.7c4.5-15.5 11.7-23.3 16.1-17.4zM598.1 635.8c4.4 5.9 4.4 23.2 0 38.7s-11.6 23.3-16.1 17.4c-4.4-5.9-4.4-23.2 0-38.7 4.5-15.5 11.7-23.3 16.1-17.4z" fill="#203040" /></svg>