<?xml version="1.0" standalone="no"?><!DOCTYPE svg PUBLIC "-//W3C//DTD SVG 1.1//EN" "http://www.w3.org/Graphics/SVG/1.1/DTD/svg11.dtd"><svg class="icon" width="200px" height="200.00px" viewBox="0 0 1024 1024" version="1.1" xmlns="http://www.w3.org/2000/svg"><path d="M512 512m-512 0a512 512 0 1 0 1024 0 512 512 0 1 0-1024 0Z" fill="#3AA1FF" /><path d="M507.94496 714.77248l-31.41632-20.93056 31.41632 20.93056a18.18624 18.18624 0 0 0 23.92064 0 18.20672 18.20672 0 0 1-23.92064 0z" fill="#FFFFFF" /><path d="M769.65888 445.58336h-44.87168v-186.94144a53.9648 53.9648 0 0 0-55.296-53.84192h-290.16064a54.90688 54.90688 0 0 0-55.296 53.84192v186.94144h-43.45856a56.19712 56.19712 0 0 0-55.296 55.296v242.2784a53.61664 53.61664 0 0 0 53.84192 53.84192h489.04192a54.90688 54.90688 0 0 0 55.296-53.84192v-242.23744a54.90688 54.90688 0 0 0-53.80096-55.33696z m-406.79424-186.94144a14.99136 14.99136 0 0 1 14.9504-14.9504h291.6352a16.384 16.384 0 0 1 16.384 14.9504v302.10048l-145.05984 101.70368-20.93056 13.45536-20.93056-14.9504-136.0896-98.7136v-303.59552z m421.74464 483.06176a14.99136 14.99136 0 0 1-14.9504 14.9504H280.576a14.99136 14.99136 0 0 1-14.9504-14.9504v-240.78336a14.99136 14.99136 0 0 1 14.9504-14.9504h43.4176v98.7136l152.55552 110.592 31.35488 21.01248a25.7024 25.7024 0 0 0 25.41568 0l29.9008-20.93056 163.0208-113.664v-95.72352h43.37664a16.0768 16.0768 0 0 1 14.9504 14.9504v240.78336z" fill="#FFFFFF" /><path d="M519.86432 675.90144l-20.93056-13.45536 20.93056 13.45536 20.93056-13.45536z" fill="#FFFFFF" /><path d="M521.40032 405.1968a11.42784 11.42784 0 0 1-7.4752-2.99008c1.49504 1.49504 4.5056 1.49504 7.4752 2.99008z" fill="#FFFFFF" /><path d="M521.40032 405.1968a11.42784 11.42784 0 0 1-7.4752-2.99008c1.49504 1.49504 4.5056 1.49504 7.4752 2.99008z" fill="#FFFFFF" /><path d="M624.57856 460.55424a19.80416 19.80416 0 0 1-19.43552 19.43552h-59.82208v65.80224a19.456 19.456 0 1 1-38.912 0v-64.3072h-59.82208a19.456 19.456 0 0 1 0-38.912h59.82208v-35.90144h-59.82208a19.456 19.456 0 0 1 0-38.912h32.91136l-46.36672-46.36672a19.0464 19.0464 0 1 1 26.91072-26.91072l65.80224 65.80224 65.80224-65.80224a19.0464 19.0464 0 1 1 26.91072 26.91072l-46.36672 44.87168h32.91136a19.456 19.456 0 1 1 0 38.912h-59.82208v35.90144h59.82208a19.80416 19.80416 0 0 1 19.47648 19.47648z" fill="#FFFFFF" /></svg>