<?xml version="1.0" standalone="no"?><!DOCTYPE svg PUBLIC "-//W3C//DTD SVG 1.1//EN" "http://www.w3.org/Graphics/SVG/1.1/DTD/svg11.dtd"><svg class="icon" width="200px" height="200.00px" viewBox="0 0 1024 1024" version="1.1" xmlns="http://www.w3.org/2000/svg"><path d="M509.62695312 538.49902344c-92.94433594 0-168.48632813-75.54199219-168.48632812-168.48632813s75.54199219-168.48632813 168.48632813-168.48632812S678.11328125 277.06835937 678.11328125 370.01269531s-75.54199219 168.48632813-168.48632813 168.48632813z m0-297.421875c-71.19140625 0-128.93554688 57.74414063-128.93554687 128.93554687s57.74414063 128.93554688 128.93554688 128.93554688S638.5625 441.20410156 638.5625 370.01269531s-57.74414063-128.93554688-128.93554688-128.93554687zM774.22167969 799.9296875c-11.07421875 0-19.77539063-8.70117188-19.77539063-19.77539063 0-129.7265625-105.60058594-235.32714844-235.32714843-235.32714843S283.79199219 650.42773438 283.79199219 780.15429688c0 11.07421875-8.70117188 19.77539063-19.77539063 19.77539062s-19.77539063-8.70117188-19.77539062-19.77539063c0-151.47949219 123.3984375-274.87792969 274.87792969-274.87792968s274.87792969 123.3984375 274.87792968 274.87792969c0 11.07421875-8.70117188 19.77539063-19.77539062 19.77539062zM343.51367187 464.93457031C266.38964844 464.93457031 203.50390625 402.44433594 203.50390625 325.3203125c0-77.12402344 62.49023438-139.61425781 139.61425781-139.61425781 32.82714844 0 64.46777344 11.46972656 88.98925782 32.03613281l-25.31250001 30.05859375c-17.00683594-14.23828125-40.34179688-22.54394531-63.67675781-22.54394531-55.37109375 0-100.06347656 44.69238281-100.06347656 100.06347656s45.08789063 100.06347656 100.45898438 100.06347656v39.55078125zM144.17773437 677.32226563c-11.07421875 0-19.77539063-8.70117188-19.77539062-19.77539063 0-124.98046875 101.64550781-226.62597656 226.62597656-226.62597656 11.07421875 0 19.77539063 8.70117188 19.77539063 19.77539062s-8.70117188 19.77539063-19.77539063 19.77539063c-103.22753906 0-187.07519531 83.84765625-187.07519531 187.07519531 0 11.07421875-8.70117188 19.77539063-19.77539063 19.77539063zM685.62792969 470.47167969v-39.55078125c55.37109375 0 100.06347656-44.69238281 100.06347656-100.06347657s-44.69238281-100.06347656-100.06347656-100.06347656c-23.73046875 0-45.87890625 7.91015625-63.67675782 22.54394532l-25.3125-30.45410157c24.91699219-20.96191406 55.76660156-32.03613281 88.98925782-32.03613281 77.12402344 0 139.61425781 62.49023438 139.61425781 139.61425781 0 77.51953125-62.49023438 140.00976563-139.61425781 140.00976563zM884.56835938 677.32226563c-11.07421875 0-19.77539063-8.70117188-19.77539063-19.77539063 0-103.22753906-83.84765625-187.07519531-187.07519531-187.07519531-11.07421875 0-19.77539063-8.70117188-19.77539063-19.77539063s8.70117188-19.77539063 19.77539063-19.77539062c124.98046875 0 226.62597656 101.64550781 226.62597656 226.62597656 0 11.07421875-8.70117188 19.77539063-19.77539063 19.77539063z" /></svg>