<?xml version="1.0" standalone="no"?><!DOCTYPE svg PUBLIC "-//W3C//DTD SVG 1.1//EN" "http://www.w3.org/Graphics/SVG/1.1/DTD/svg11.dtd"><svg class="icon" width="200px" height="200.00px" viewBox="0 0 1024 1024" version="1.1" xmlns="http://www.w3.org/2000/svg"><path d="M683.45 863c-110.25 0-156.6-39.6-156.6-120.6 0-67.05 52.65-137.25 116.1-159.3h81c63.45 22.05 116.1 92.25 116.1 159.3 0 81.45-46.35 120.6-156.6 120.6z m43.2-132.75c7.2 0 13.5-5.85 13.5-13.5 0-7.2-5.85-13.05-13.5-13.5h-27v-0.9l31.5-31.95c4.95-5.85 2.7-10.35-2.7-15.75-4.95-5.4-13.5-6.3-18-1.8l-27 28.8-29.25-29.25c-3.6-3.6-10.8-2.7-16.2 2.7-5.4 5.4-6.3 12.15-2.7 16.2l29.7 29.7c-0.45 0.9-0.9 1.35-1.35 2.25h-24.3c-7.2 0-13.5 5.85-13.5 13.5 0 7.2 5.85 13.5 13.5 13.5h26.55v13.05h-26.55c-4.95 0-9 2.7-11.7 6.75-2.25 4.05-2.25 9 0 13.5 2.25 4.05 6.75 6.75 11.7 6.75h26.55v13.5h0.45c-0.9 4.95 0.45 9.9 3.6 13.95 3.15 4.05 7.65 5.85 12.6 6.3 4.95 0 9.45-2.25 12.6-6.3 3.15-4.05 4.5-9 3.6-13.95v-13.5h27c7.2 0 13.5-5.85 13.5-13.5 0-7.2-5.85-13.5-13.5-13.5h-27v-13.5l27.9 0.45z m20.25-199.8l-2.7 3.6v0.45l-23.85 29.7h-79.65l-23.85-29.7-0.45-0.45-2.7-3.15 0.45-0.9c0-0.9-0.45-1.8-0.45-2.7 0-4.05 2.7-7.65 6.3-9.45l0.45-0.45s32.85-6.75 59.85-6.75c20.25 0.45 40.05 2.7 59.85 6.75l0.45 0.45c3.6 1.35 6.3 4.95 6.3 9.45 0 0.9-0.45 1.8-0.45 2.25l0.45 0.9z m0 0M507.5 135.35c-102.6 0-185.85 82.8-185.85 184.95 0 56.7 26.1 109.35 71.55 144.9l11.7 9-13.95 5.4c-121.05 48.15-199.35 162-199.35 290.7v64.35c0 13.05 10.8 23.85 23.85 23.85h276.75c-19.8-9.9-34.65-27-42.75-47.25H239.3v-40.95c0-138.15 106.65-251.55 242.1-264.6h0.45c8.1-0.9 16.65-0.9 25.2-0.9h4.05c30.15-2.25 75.6-9.45 99-30.15l11.7-9c45-34.65 71.55-88.2 71.55-144.9 0-102.6-83.25-185.4-185.85-185.4z m0 321.75c-76.05 0-138.15-61.65-138.15-136.8C369.35 244.7 431 183.05 507.5 183.05s138.15 61.65 138.15 137.25S583.55 457.1 507.5 457.1z m0 0" /></svg>