<?xml version="1.0" standalone="no"?><!DOCTYPE svg PUBLIC "-//W3C//DTD SVG 1.1//EN" "http://www.w3.org/Graphics/SVG/1.1/DTD/svg11.dtd"><svg class="icon" width="200px" height="200.00px" viewBox="0 0 1024 1024" version="1.1" xmlns="http://www.w3.org/2000/svg"><path d="M436.62412109 134.08613281c-167.10644531 0-302.55292969 135.45439453-302.55292968 302.5538086 0 167.10820312 135.44648437 302.5546875 302.55292968 302.5546875 167.09238281 0 302.53886719-135.44648437 302.53886719-302.5546875-0.00087891-167.09941406-135.44648437-302.55380859-302.53886719-302.5538086z m0 544.59404297c-133.68691406 0-242.04023437-108.37441406-242.04023437-242.04111328 0-133.68779297 108.35244141-242.04023437 242.04023437-242.04023438 133.64560547 0 242.02529297 108.3515625 242.02529297 242.04023438 0 133.66757813-108.38056641 242.04111328-242.02529297 242.04111328zM880.85849609 837.10126953L708.96552734 665.20654297c-13.62128906 15.48193359-28.21816406 30.10869141-43.73085937 43.73085937l171.87978516 171.89384766c0.028125 0.02988281 0.028125 0.05800781 0.05800781 0.05800781 12.07089844 12.05683594 31.63095703 12.02695312 43.68603515-0.05800781l0.05888672-0.05888672c12.05595703-12.05595703 11.99707031-31.61689453-0.05888672-43.67109375z" /></svg>