<?xml version="1.0" standalone="no"?><!DOCTYPE svg PUBLIC "-//W3C//DTD SVG 1.1//EN" "http://www.w3.org/Graphics/SVG/1.1/DTD/svg11.dtd"><svg class="icon" width="200px" height="200.00px" viewBox="0 0 1024 1024" version="1.1" xmlns="http://www.w3.org/2000/svg"><path d="M796.27124 447.11199951l-61.79809547-10.81466651-12.35961937-27.80914306 35.53390526-50.98342896c10.81466651-15.44952368 9.26971435-35.53390526-4.63485717-49.4384768l-38.62380958-38.62380958c-13.90457153-13.90457153-33.9889524-15.44952368-49.4384768-4.63485718l-50.98342896 35.53390456-27.80914307-12.35961867-10.81466651-61.79809617c-1.54495216-16.99447656-16.99447656-30.89904809-35.53390526-30.89904738h-54.07333398c-18.53942872 0-33.9889524 13.90457153-38.62380958 32.44400024l-10.81466651 61.79809547-27.80914306 12.35961937L355.95980811 264.80761742c-15.44952368-10.81466651-35.53390526-9.26971435-49.43847608 4.63485718l-38.6238103 38.62380958c-13.90457153 13.90457153-15.44952368 33.9889524-4.63485717 49.4384768l35.53390526 50.98342896-12.35961937 27.80914306-61.79809547 10.81466651c-15.44952368 3.08990502-29.35409522 18.53942872-29.35409522 37.07885742v54.07333398c0 18.53942872 13.90457153 33.9889524 32.44400024 38.62380958l61.79809547 10.81466651 12.35961937 27.80914306L264.80761742 668.04019189c-10.81466651 15.44952368-9.26971435 35.53390526 4.63485718 49.43847608l38.62380958 38.6238103c13.90457153 13.90457153 33.9889524 15.44952368 49.4384768 4.63485717l50.98342896-35.53390526 27.80914306 12.35961937 10.81466651 61.79809547c3.08990502 18.53942872 18.53942872 32.44400024 38.62380958 32.44400024h54.07333398c18.53942872 0 33.9889524-13.90457153 38.62380957-32.44400024l10.81466723-61.79809547 27.80914306-12.35961937 50.98342896 35.53390526c15.44952368 10.81466651 35.53390526 9.26971435 49.43847609-4.63485717l38.62381029-38.6238103c13.90457153-13.90457153 15.44952368-33.9889524 4.63485717-49.43847608l-35.53390526-50.98342896 12.35961937-27.80914306 61.79809547-10.81466723c18.53942872-3.08990502 32.44400024-18.53942872 32.44400024-38.62380957v-54.07333398c-3.08990502-20.08438087-16.99447656-35.53390526-35.53390526-38.62380958z m-13.90457153 84.97238136l-67.9779048 12.35961937c-7.7247622 1.54495216-13.90457153 6.17980933-16.99447656 13.90457153l-21.62933374 50.98342896c-3.08990502 7.7247622-1.54495216 15.44952368 3.08990503 21.62933374l38.62380958 55.61828613-29.35409522 29.35409522-55.61828614-38.62380958c-6.17980933-4.63485718-15.44952368-6.17980933-21.62933373-3.08990502L558.34857177 697.39428711c-7.7247622 3.08990502-12.35961937 9.26971435-13.90457153 16.99447656l-12.35961937 67.9779048h-41.71371461l-12.35961866-67.9779048c-1.54495216-7.7247622-6.17980933-13.90457153-13.90457153-16.99447656l-50.98342896-21.62933374c-7.7247622-3.08990502-15.44952368-1.54495216-21.62933373 3.08990503l-55.61828614 38.62380958-29.35409522-29.35409522 38.62380958-55.61828614c4.63485718-6.17980933 6.17980933-15.44952368 3.08990503-21.62933373L326.60571289 558.34857177c-3.08990502-7.7247622-9.26971435-12.35961937-16.99447656-13.90457153l-67.9779048-12.35961937v-41.71371461l67.9779048-12.35961866c7.7247622-1.54495216 13.90457153-6.17980933 16.99447656-13.90457153l21.62933374-50.98342896c3.08990502-7.7247622 1.54495216-15.44952368-3.08990503-21.62933373l-38.62380958-55.61828614 29.35409522-29.35409522 55.61828614 38.62380958c6.17980933 4.63485718 15.44952368 6.17980933 21.62933373 3.08990503L465.65142823 326.60571289c7.7247622-3.08990502 12.35961937-9.26971435 13.90457153-16.99447656l12.35961937-67.9779048h41.71371461l12.35961866 67.9779048c1.54495216 7.7247622 6.17980933 13.90457153 13.90457153 16.99447656l50.98342896 21.62933374c7.7247622 3.08990502 15.44952368 1.54495216 21.62933373-3.08990503l55.61828614-38.62380958 29.35409522 29.35409522-38.62380958 55.61828614c-4.63485718 6.17980933-6.17980933 15.44952368-3.08990503 21.62933373L697.39428711 465.65142823c3.08990502 7.7247622 9.26971435 12.35961937 16.99447656 13.90457153l67.9779048 12.35961937v40.16876174zM512 427.02761864c-46.34857177 0-84.97238136 38.62380958-84.97238136 84.97238136s38.62380958 84.97238136 84.97238136 84.97238136 84.97238136-38.62380958 84.97238136-84.97238136-38.62380958-84.97238136-84.97238136-84.97238136z m0 123.59619094c-21.62933374 0-38.62380958-16.99447656-38.62380958-38.62380958s16.99447656-38.62380958 38.62380958-38.62380958 38.62380958 16.99447656 38.62380958 38.62380958-16.99447656 38.62380958-38.62380958 38.62380958z" /></svg>