<?xml version="1.0" standalone="no"?><!DOCTYPE svg PUBLIC "-//W3C//DTD SVG 1.1//EN" "http://www.w3.org/Graphics/SVG/1.1/DTD/svg11.dtd"><svg class="icon" width="200px" height="200.00px" viewBox="0 0 1024 1024" version="1.1" xmlns="http://www.w3.org/2000/svg"><path d="M821.96488345 795.22397375c0-62.57453438-50.47713657-113.30493938-112.72645126-113.30493938-27.68395031 0-52.69899001 10.45882875-72.33687562 27.09970594L413.51125531 565.49429094c8.57946281-16.0067475 13.91728406-34.02333187 13.91728407-53.49141281 0-17.72014594-4.39765875-34.27180406-11.63691-49.20312l223.98893531-145.39901907c19.20905625 15.23159344 43.13715281 24.6792675 69.4578675 24.6792675 62.24835563 0 112.72645125-50.73520125 112.72645124-113.27807719 0-62.57453438-50.47713657-113.30493938-112.72645124-113.30493936s-112.71110156 50.73520125-112.71110157 113.30493937c0 15.44169094 3.10733344 30.17825906 8.71185375 43.58804719l-224.94540656 146.05137749 2.4223575 3.739545c-18.95770687-14.51399906-42.34760813-23.46377156-68.01884343-23.46377156-62.24835563 0-112.7101425 50.71217719-112.7101425 113.27807719 0 62.57453438 50.47233937 113.28767063 112.7101425 113.28767062 21.92017781 0 42.16629094-6.53317031 59.47007906-17.39108906l229.87358531 147.677475c-4.6355775 12.3564225-7.49539781 25.63861689-7.49539781 39.64895813 0 62.56494094 50.47233937 113.28767063 112.7101425 113.28767063s112.75810969-50.73520125 112.75810968-113.28767063l0 0L821.96488345 795.22397375zM677.88880719 275.82156875l-22.96011282-35.72138063-0.78091031 0.50557688c-0.81448781-3.82972313-1.28169094-7.79567437-1.28169094-11.83933313 0-31.30261687 25.243365-56.6476725 56.36658375-56.6476725 31.13377125 0 56.36658375 25.34505563 56.36658375 56.6476725 0 31.26616125-25.23089344 56.64383531-56.36658375 56.64383532-11.60812969 0.00191906-22.36531594-3.53616281-31.33235624-9.58773938l0 0L677.88880719 275.82156875zM258.33742345 511.98177219c0-31.26616125 25.23089344-56.64383531 56.35315217-56.64383532 31.14144656 0 56.37521719 25.35464999 56.37521719 56.64383532 0 31.30261687-25.23089344 56.6476725-56.37521719 56.6476725C283.570235 568.62944563 258.33742345 543.28438906 258.33742345 511.98177219L258.33742345 511.98177219zM652.84498719 795.22397375c0-31.28918625 25.243365-56.64383531 56.36658375-56.64383531 31.13377125 0 56.36658375 25.34505563 56.36658375 56.64383531 0 31.26616125-25.23089344 56.6476725-56.36658375 56.6476725C678.09123031 851.87068813 652.84498719 826.49589219 652.84498719 795.22397375L652.84498719 795.22397375 652.84498719 795.22397375z" /></svg>