<?xml version="1.0" standalone="no"?><!DOCTYPE svg PUBLIC "-//W3C//DTD SVG 1.1//EN" "http://www.w3.org/Graphics/SVG/1.1/DTD/svg11.dtd"><svg class="icon" width="200px" height="200.00px" viewBox="0 0 1024 1024" version="1.1" xmlns="http://www.w3.org/2000/svg"><path d="M419.75 769.12500029c-132.75-9.18749971-230.43750029-50.625-230.43750029-105.93750058v69.1875c0 64.50000029 133.68750029 119.8125 304.12500029 119.8125h18.74999971a270.37500029 270.37500029 0 0 1-92.43749971-83.06249942z m-18.74999971-46.125a231.37499971 231.37499971 0 0 1-9.18750058-55.31250058 58.5 58.5 0 0 1 4.68750058-27.5625c-119.8125-9.18749971-207.37500029-46.125-207.37500029-96.75v69.1875c0.18749971 50.625 87.75 96.75 212.24999971 110.43750058z m4.68749971-119.8125A193.12499971 193.12499971 0 0 1 456.68750029 529.50000029c-152.06249971-4.68749971-267.37499971-46.125-267.37500058-110.62500029v69.1875c0 55.31249971 92.25 101.43749971 216.75000058 115.12500029zM677.9375 529.50000029H622.62500029v110.62499942H512v55.31250058h110.62500029v110.62499942h55.31249971v-110.62499942h110.62500029V640.12499971h-110.62500029zM512 206.8125c-179.81250029 0-322.68750029 60.00000029-322.68750029 138.18750029s142.875 138.375 322.68750029 138.375h9.18749971a504 504 0 0 1 243.75000058-60.00000029h13.87499942c37.50000029-23.0625 55.31249971-50.625 55.31250058-78.37499971C834.68750029 267 691.81250029 206.8125 512 206.8125z" /></svg>