<?xml version="1.0" standalone="no"?><!DOCTYPE svg PUBLIC "-//W3C//DTD SVG 1.1//EN" "http://www.w3.org/Graphics/SVG/1.1/DTD/svg11.dtd"><svg class="icon" width="200px" height="200.00px" viewBox="0 0 1024 1024" version="1.1" xmlns="http://www.w3.org/2000/svg"><path d="M356.440625 867.63124971c-31.56562529 19.61250029-72.84375 9.46874971-92.01562471-22.46249971a67.96874971 67.96874971 0 0 1-7.875-50.47499971l40.85624971-174.234375a11.54999971 11.54999971 0 0 0-3.53437471-11.30625l-133.734375-116.53125029c-27.77812471-24.1875-30.98437471-66.4875-7.23750029-94.68749971a66.515625 66.515625 0 0 1 45.46874971-23.5125L373.878125 360.125c3.825-0.31875029 7.24687471-2.840625 8.81250029-6.67500029l67.62187442-165.38437442c14.090625-34.453125 53.27812529-50.90625 87.46875-36.44062558a67.06874971 67.06874971 0 0 1 35.8875 36.44062558l67.62187529 165.375c1.56562471 3.84374971 4.98750029 6.37499971 8.81250029 6.68437471l175.528125 14.30624971c36.80624971 2.99999971 64.05937471 35.55937529 61.14375 72.52500058a67.62187529 67.62187529 0 0 1-22.921875 45.68437442l-133.734375 116.53125029c-3.11249971 2.70937529-4.51874971 7.09687529-3.53437558 11.29687471l40.85625058 174.234375c8.45624971 36.04687471-13.5 72.365625-49.34062529 81.05625a66.16874971 66.16874971 0 0 1-50.55937471-8.11874971l-150.271875-93.375a9.928125 9.928125 0 0 0-10.55625029 0l-150.28125029 93.375zM546.96875029 726.48125l150.271875 93.375c2.30625 1.42499971 5.02499971 1.86562529 7.60312442 1.2375 5.63437529-1.36874971 9.28125-7.40625029 7.846875-13.55625l-40.85624971-174.234375a67.79999971 67.79999971 0 0 1 21.33749971-66.56249971L826.90624971 450.21875029c2.18437471-1.90312471 3.56249971-4.66875 3.80625029-7.68750029 0.49687471-6.271875-3.94687529-11.57812471-9.646875-12.0375l-175.528125-14.315625a66.78749971 66.78749971 0 0 1-56.30625-41.45625l-67.62187529-165.375a10.81874971 10.81874971 0 0 0-5.74687442-5.92499971c-5.18437529-2.19375-11.18437471 0.32812471-13.471875 5.92499971l-67.63125058 165.375a66.78749971 66.78749971 0 0 1-56.30625 41.45625l-175.51874971 14.315625a10.265625 10.265625 0 0 0-7.01250029 3.67499971 11.62500029 11.62500029 0 0 0 1.17187558 16.05000058l133.734375 116.53124942a67.79999971 67.79999971 0 0 1 21.33749971 66.56250058l-40.85624971 174.22499971a11.71874971 11.71874971 0 0 0 1.33124942 8.68124971c3.065625 5.090625 9.29999971 6.61875029 14.11875 3.628125l150.28125029-93.36562471a66.178125 66.178125 0 0 1 69.92812529 0z" /></svg>