<?xml version="1.0" standalone="no"?><!DOCTYPE svg PUBLIC "-//W3C//DTD SVG 1.1//EN" "http://www.w3.org/Graphics/SVG/1.1/DTD/svg11.dtd"><svg class="icon" width="200px" height="200.00px" viewBox="0 0 1024 1024" version="1.1" xmlns="http://www.w3.org/2000/svg"><path d="M572.79520067 182.73032962L767.7617185 203.74874412a56.50111596 56.50111596 0 0 1 50.1164905 50.11649051l21.01841451 194.96651781a56.50111596 56.50111596 0 0 1-16.23465328 45.99190795L494.82366039 822.66197024a56.50111596 56.50111596 0 0 1-79.89257814-1e-8L198.96498288 606.69587087a56.50111596 56.50111596 0 0 1 1e-8-79.89257812L526.80329274 198.96498288a56.50111596 56.50111596 0 0 1 45.99190793-16.23465326zM566.7495818 238.91127194L238.91127194 566.7495818l215.96609938 215.96609938 327.83830985-327.83830986-21.01841529-194.94768407L566.7495818 238.91127194z m52.90387817 69.72237747a84.75167433 84.75167433 0 1 1 0 169.50334865 84.75167433 84.75167433 0 0 1 0-169.50334865z m0 56.50111596a28.25055836 28.25055836 0 1 0 0 56.50111595 28.25055836 28.25055836 0 0 0 0-56.50111595z" /></svg>