<?xml version="1.0" standalone="no"?><!DOCTYPE svg PUBLIC "-//W3C//DTD SVG 1.1//EN" "http://www.w3.org/Graphics/SVG/1.1/DTD/svg11.dtd"><svg class="icon" width="200px" height="200.00px" viewBox="0 0 1024 1024" version="1.1" xmlns="http://www.w3.org/2000/svg"><path d="M206.64488076 645.35438604c-33.9294955 39.38159971-34.62652354 95.15458477-1.56224092 124.55295292l98.10188701 87.2543417 4.61836846 3.61644786c6.89652422 4.75597529 15.06298711 7.70327753 24.34829151 9.00109687 24.23047148 3.37990869 56.00772685-4.67682891 92.26574384-22.36423711 71.17864102-34.82258994 159.61208291-106.82687109 242.05198887-202.49320956 82.43990596-95.63575869 141.00190049-194.2296126 165.52737246-270.51768898 17.29437451-53.70888516 17.6874082-96.39304541-2.37708808-119.18898984l-4.1479875-4.16597519L727.38911622 163.8127707c-10.65057891-9.47237783-23.48307862-15.05309414-37.14121846-16.95980127-28.77059355-4.00858242-61.17742177 8.29417676-84.17033263 35.00066953l-61.96169003 71.90624796c-33.93938935 39.36361113-34.62652354 95.13479883-1.55324708 124.5340661l93.66159727 83.30511885c-21.26428242 30.57836748-45.33736113 61.68647636-71.88646113 92.50138389-26.57068506 30.8140084-53.72867198 59.18167441-80.76973799 84.61013467L389.91722187 555.41716279c-10.64158506-9.45349013-23.47408477-15.03420644-37.1313246-16.94001445-28.77059355-4.02836836-61.16752881 8.29327675-84.17932647 34.97998359L206.64488076 645.35438604 206.64488076 645.35438604zM684.31282227 190.69734307c5.64007588 0.78606738 10.47429844 2.94730136 14.36595995 6.40635644l10.53365801 9.35365781L580.59064531 353.2972001l-9.33477099-8.29327676c-8.43088359-7.50810937-9.57131104-18.68932881-9.49216465-24.68286475 0.17628047-12.81361201 5.67874951-26.45106592 15.11245371-37.41733125l61.98237597-71.90624794C651.29800625 196.55417217 669.1419081 188.59456865 684.31282227 190.69734307L684.31282227 190.69734307zM269.08774473 766.13439658l128.35647422-146.68244912 68.9283668 61.94370234 18.03996914 16.86086807 28.79038037-27.07973964c28.69144717-27.04106602 56.91251338-56.63729971 83.91400664-87.93338116 26.96281963-31.30507529 52.09717852-63.65164395 74.67726885-96.11783174l22.63855078-32.58220957-29.51618819-26.25409951-56.53836738-49.75966318 130.74435527-148.52889757 56.63640059 53.43277237 1.76910029 1.78888711c3.65512148 5.24704219 8.58737812 27.17867286-6.93699698 75.44354942-11.22259131 34.90173633-30.83469434 75.87525674-56.71734521 118.51984336-27.76687383 45.710608-61.47062315 91.67664287-100.16418867 136.61017821-38.71425146 44.92454151-79.11935683 84.93571318-120.05330362 118.93266387-38.18451094 31.71879492-75.56226856 56.87204063-108.1246913 72.79124766-40.00127872 19.53385576-60.48848847 19.41603574-67.43537842 18.43300283-2.7710209-0.39303369-4.3818293-0.98213378-5.266829-1.45341475l-1.97416143-1.57303388L269.08774473 766.13439658zM224.30170917 711.93444453c0.15739365-12.81271289 5.66885654-26.45196592 15.12144757-37.41823037l61.95269619-71.92513476c12.45025898-14.4352125 30.30315469-22.3939169 45.47496797-20.27135567 5.64007588 0.78606738 10.47429844 2.92751543 14.36506084 6.40635645l7.40917617 6.58263691L241.13379746 742.63063203l-7.3507166-6.01422275C225.35309638 729.11009903 224.22346279 717.94686816 224.30170917 711.93444453L224.30170917 711.93444453z" /></svg>