<?xml version="1.0" standalone="no"?><!DOCTYPE svg PUBLIC "-//W3C//DTD SVG 1.1//EN" "http://www.w3.org/Graphics/SVG/1.1/DTD/svg11.dtd"><svg class="icon" width="200px" height="200.00px" viewBox="0 0 1024 1024" version="1.1" xmlns="http://www.w3.org/2000/svg"><path d="M644.38249414 555.30230996c60.22598555-41.20681026 99.8518333-110.94658506 99.8518333-190.19641377 0-128.38012822-104.60779453-232.98792276-232.98792275-232.98792275-128.38386357 0-231.40696026 104.60779453-231.40696026 231.40229062 0 79.25076299 39.62584864 148.98960352 99.85276758 190.19641377C243.38485918 607.60573964 148.28898711 739.15713125 148.28898711 892.89802637l0 0 64.98288018 0 0 0c0-152.15526386 115.70067862-278.95069424 263.10371659-296.38610508 1.58563125 0 41.20774453-3.17032911 74.49200069 0l3.1703291 0 0 0c144.23270888 20.60293887 255.17929394 144.22990693 255.17929394 294.80047295l0 0 66.56757804 0 0 0C874.19821924 739.15713125 779.10234717 607.60573964 644.38249414 555.30230996L644.38249414 555.30230996zM511.24640469 537.86783252c-96.68523955 0-174.34663506-77.66326318-174.34663506-174.34756934 0-96.6815042 77.66232979-174.34289971 174.34663506-174.3428997 96.68056992 0 174.34289971 77.66139551 174.34289971 174.3428997C685.5893044 460.20550362 607.92697461 537.86783252 511.24640469 537.86783252L511.24640469 537.86783252zM511.24640469 537.86783252" /></svg>