<?xml version="1.0" standalone="no"?><!DOCTYPE svg PUBLIC "-//W3C//DTD SVG 1.1//EN" "http://www.w3.org/Graphics/SVG/1.1/DTD/svg11.dtd"><svg class="icon" width="200px" height="200.00px" viewBox="0 0 1024 1024" version="1.1" xmlns="http://www.w3.org/2000/svg"><path d="M638.39770508 529.13867188c-17.22106934-8.89892578-35.34851075-16.14990234-54.2175293-21.75292969 70.12023926-36.83166504 114.94445801-115.35644531 101.10168458-202.69775391C671.93347168 220.31298828 601.6484375 153.65344238 516.77905273 144.09533691 400.02185058 130.99414062 301.0625 222.04333496 301.0625 336.24621582c0 74.40490723 42.10510254 138.92211914 103.82080078 171.30432129-131.09436036 38.64440918-226.84020997 159.76867676-226.84020996 303.30505371 0 19.1986084 1.89514161 37.9852295 5.19104004 56.19506836 1.4831543 8.23974609 8.89892578 14.08996583 17.3034668 14.08996582h0.08239746c10.95886231 0 19.1986084-9.88769531 17.22106933-20.6817627-8.89892578-47.79052734-6.09741211-99.61853028 17.38586427-154.24804687 41.44592286-96.4050293 130.51757813-166.60766602 235.07995605-175.58898926 58.09020997-5.02624512 112.55493164 8.32214356 159.27429199 34.11254883 19.52819825 0 26.28479004-26.61437989 8.81652832-35.59570312zM467.58776855 492.22460937c-65.50598145-10.79406739-118.32275391-63.69323731-129.11682128-129.11682129C320.59069824 254.91992187 413.12304687 162.38757324 521.22851563 180.26782227c65.50598145 10.79406739 118.32275391 63.61083984 129.11682129 129.11682129 17.96264648 108.10546875-74.65209961 200.72021484-182.75756837 182.83996581zM617.46875 670.203125h210.9375c9.72290039 0 17.55065918-7.91015625 17.55065918-17.55065918 0-9.72290039-7.91015625-17.55065918-17.55065918-17.55065918H617.46875c-9.72290039 0-17.55065918 7.91015625-17.55065918 17.55065919 0 9.64050293 7.82775879 17.55065918 17.55065918 17.55065917zM617.46875 758.12121583h210.9375c9.72290039 0 17.55065918-7.91015625 17.55065918-17.55065919 0-9.72290039-7.91015625-17.55065918-17.55065918-17.55065918H617.46875c-9.72290039 0-17.55065918 7.91015625-17.55065918 17.55065918 0 9.64050293 7.82775879 17.55065918 17.55065918 17.55065918zM617.46875 845.95690918h210.9375c9.72290039 0 17.55065918-7.91015625 17.55065918-17.55065918 0-9.72290039-7.91015625-17.55065918-17.55065918-17.55065918H617.46875c-9.72290039 0-17.55065918 7.91015625-17.55065918 17.55065918 0 9.72290039 7.82775879 17.55065918 17.55065918 17.55065917z" /></svg>