<?xml version="1.0" standalone="no"?><!DOCTYPE svg PUBLIC "-//W3C//DTD SVG 1.1//EN" "http://www.w3.org/Graphics/SVG/1.1/DTD/svg11.dtd"><svg class="icon" width="200px" height="200.00px" viewBox="0 0 1024 1024" version="1.1" xmlns="http://www.w3.org/2000/svg"><path d="M773.36474609 858.5637207l0.90637208-0.57678223c8.89892578-6.17980958 12.27722168-18.29223633 7.91015624-28.09753417-0.32958984-0.74157715-2.80151367-6.92138672-2.80151366-12.27722169 0-17.71545411 14.41955567-32.13500977 32.13500976-32.13500975h1.4831543c9.0637207 0 16.23229981-7.25097656 18.37463378-18.45703125 0-0.16479492 3.21350098-16.64428711 3.21350099-29.82788086 0-12.52441406-2.80151367-28.09753418-3.13110352-29.82788086-2.14233398-11.20605469-9.31091309-18.45703125-18.62182617-18.45703125h-1.31835938c-17.71545411 0-32.13500977-14.41955567-32.13500976-32.13500977 0-4.61425781 2.05993653-10.38208008 2.80151367-12.11242676 4.36706543-9.88769531 0.98876953-22.00012208-8.73413086-28.75671386L735.87390137 595.22143555c-2.96630859-1.23596192-6.09741211-1.89514161-9.47570801-1.89514161-6.83898926 0-13.51318359 2.80151367-17.96264648 7.41577149-4.69665528 4.8614502-17.05627442 14.74914551-25.62561036 14.74914551-8.6517334 0-21.09375-10.1348877-25.79040527-14.99633789-4.44946289-4.69665528-11.28845215-7.58056641-18.12744141-7.58056641-3.29589844 0-6.42700195 0.65917969-9.22851562 1.81274414l-0.74157715 0.24719239-38.23242188 21.01135253-0.90637206 0.57678223c-8.89892578 6.17980958-12.27722168 18.29223633-7.91015625 28.09753418 0.32958984 0.74157715 2.88391114 6.92138672 2.88391112 12.27722168 0 17.71545411-14.41955567 32.13500977-32.13500976 32.13500976h-1.4831543c-9.0637207 0-16.23229981 7.25097656-18.37463378 18.53942872-0.32958984 1.73034668-3.13110352 17.22106934-3.13110352 29.82788086 0 12.52441406 2.88391114 28.09753418 3.13110352 29.82788085 2.14233398 11.20605469 9.31091309 18.45703125 18.62182617 18.45703125h1.23596191c17.71545411 0 32.13500977 14.41955567 32.13500976 32.13500977 0 4.61425781-2.05993653 10.38208008-2.80151367 12.11242676-4.36706543 9.88769531-0.98876953 21.91772461 8.6517334 28.75671386l36.83166505 20.51696778c2.96630859 1.23596192 6.09741211 1.89514161 9.475708 1.8951416 6.92138672 0 13.67797852-2.88391114 18.12744141-7.74536133 4.53186036-4.94384766 17.38586426-15.73791504 26.20239258-15.73791504 8.89892578 0 21.67053223 10.79406739 26.3671875 16.06750489 4.44946289 4.94384766 11.28845215 7.82775879 18.29223632 7.82775879 3.29589844 0 6.42700195-0.65917969 10.21728516-2.30712892l37.24365234-20.68176269zM681.24438477 828.40625c-10.71166992 0-22.164917 4.36706543-33.94775391 13.01879883-3.87268067 2.88391114-7.49816895 5.93261719-10.95886231 9.31091309l-25.7080078-14.33715821c1.4831543-4.61425781 3.29589844-11.45324708 3.29589842-18.62182617 0-30.98144531-23.07128906-56.85424805-53.31115722-60.80932618-0.74157715-5.02624512-1.89514161-13.18359375-1.8951416-19.6105957 0-6.50939942 1.071167-14.58435059 1.8951416-19.6105957 30.23986817-3.95507813 53.31115723-29.82788086 53.31115723-60.80932618 0-7.16857911-1.73034668-13.9251709-3.21350098-18.5394287l27.76794434-15.24353028c2.38952637 2.30712891 6.26220703 5.68542481 11.04125977 9.0637207 11.618042 8.32214356 22.90649414 12.52441406 33.37097167 12.52441407 10.38208008 0 21.50573731-4.11987305 33.1237793-12.27722168 4.69665528-3.29589844 8.48693848-6.59179688 10.95886231-8.89892578l26.53198241 14.7491455c-1.4831543 4.61425781-3.29589844 11.45324708-3.29589843 18.62182617 0 30.98144531 23.07128906 56.85424805 53.31115723 60.80932618 0.82397461 5.10864258 1.89514161 13.18359375 1.8951416 19.6105957 0 6.42700195-1.071167 14.50195313-1.8951416 19.6105957C773.11755372 760.84033203 750.12866211 786.71313477 750.12866211 817.69458008c0 7.16857911 1.73034668 13.9251709 3.21350098 18.53942871l-26.86157227 14.83154296c-2.38952637-2.38952637-6.26220703-5.93261719-11.04125976-9.475708-11.86523438-8.73413086-23.40087891-13.18359375-34.19494629-13.18359375zM738.09863281 737.10986328c0-31.2286377-25.46081543-56.68945313-56.68945312-56.68945312s-56.68945313 25.46081543-56.68945313 56.68945312c0 31.31103516 25.46081543 56.68945313 56.68945313 56.68945313s56.68945313-25.46081543 56.68945312-56.68945313z m-56.68945312 27.52075195c-15.16113281 0-27.52075195-12.35961914-27.52075196-27.52075195s12.35961914-27.52075195 27.52075196-27.52075195 27.52075195 12.35961914 27.52075195 27.52075195c-0.08239747 15.16113281-12.35961914 27.52075195-27.52075195 27.52075195zM712.63781739 355.60961914c0-117.4987793-95.25146484-212.83264161-212.75024415-212.91503906v-0.08239747c-56.5246582 0-110.65979004 22.41210938-150.62255859 62.37487794-39.96276856 40.04516602-62.45727539 94.18029786-62.37487793 150.70495606 0 79.67834473 44.24743653 148.31542969 109.09423828 184.81750487-117.66357422 42.35229492-202.36816406 153.42407227-203.52172852 285.34240724v4.28466795c0.16479492 7.58056641 1.64794922 14.74914551 2.30712891 22.32971192h0.49438477c1.23596192 11.78283692 11.20605469 20.6817627 22.9888916 20.68176269 11.86523438 0 21.75292969-8.89892578 22.9888916-20.68176269h0.74157715c-0.65917969-7.99255372-2.38952637-15.65551758-2.38952637-23.73046875 0-69.04907227 27.35595703-135.2142334 76.13525391-184.07592773 48.77929688-48.77929688 115.02685547-76.21765137 184.07592773-76.21765137l23.6480713-2.38952637c106.21032715-11.78283692 189.18457031-100.93688965 189.1845703-210.44311523zM499.80517578 521.31091309c-91.46118164 0-165.61889648-74.15771484-165.61889648-165.61889649s74.15771484-165.61889648 165.61889648-165.61889648 165.61889648 74.15771484 165.61889649 165.61889648-74.07531739 165.61889648-165.61889649 165.61889649z" /></svg>