<?xml version="1.0" standalone="no"?><!DOCTYPE svg PUBLIC "-//W3C//DTD SVG 1.1//EN" "http://www.w3.org/Graphics/SVG/1.1/DTD/svg11.dtd"><svg class="icon" width="200px" height="200.00px" viewBox="0 0 1024 1024" version="1.1" xmlns="http://www.w3.org/2000/svg"><path d="M395.12 814.56a70.272 70.272 0 0 1-82.32-47.76L198 396.48l-4.16-13.44a101.888 101.888 0 0 1-3.28-13.6 103.848 103.848 0 0 1 79.92-118.4 102.76 102.76 0 0 1 22.4-2.48A103.864 103.864 0 0 1 395.6 338.4l6.48 48 3.76 27.76 43.68 322.32a70.232 70.232 0 0 1-54.4 78.08z" fill="#FD9025" /><path d="M254.16 384l-56.16 12.48-4.16-13.44a101.888 101.888 0 0 1-3.28-13.6 0.296 0.296 0 0 1 0.24-0.08l57.28-12.72a14.016 14.016 0 0 1 6.08 27.36zM405.84 414.16l-105.76 23.36a12.672 12.672 0 0 1-3.04 0.4 14.008 14.008 0 0 1-2.96-27.68l106.88-23.68a5.4 5.4 0 0 1 1.12-0.16z" fill="#ED3A1B" /><path d="M310.4 167.2a52.992 52.992 0 1 0-101.512 17.952c-0.552 0.096-1.088 0.072-1.6 0.192A42.336 42.336 0 1 0 252.8 248a54.504 54.504 0 1 0 57.6-80.8z" fill="#83E685" /><path d="M380.872 295.512a146.664 146.664 0 0 0 32.56 69.416A59.88 59.88 0 0 0 466.144 471.2a85.984 85.984 0 1 0 145.792-81.336 147.496 147.496 0 1 0-231.064-94.352z" fill="#20C8C7" /><path d="M551.024 415.552l57.32-102.656a14 14 0 1 0-24.448-13.696l-40.472 72.488a937.104 937.104 0 0 1-11.648-164.648 14 14 0 0 0-28-1.36 762.696 762.696 0 0 0 1.744 81.048l-50.944-38.832a14 14 0 0 0-16.976 22.296l71.2 54.24A1009.6 1009.6 0 0 0 595.792 646.4a14 14 0 0 0 25.336-11.92 935.296 935.296 0 0 1-70.104-218.928z" fill="#6AE1DB" /><path d="M848.272 304a107.928 107.928 0 0 1-23.96 51.08 44.064 44.064 0 0 1-38.792 78.2 63.272 63.272 0 1 1-107.28-59.84A108.536 108.536 0 1 1 848.272 304z" fill="#83E685" /><path d="M811.392 268.696a14.016 14.016 0 0 0-19.624-2.648l-31.056 23.68c1.72-30.496 0.904-49.744 0.8-52a14 14 0 1 0-28 1.36 667.608 667.608 0 0 1-6.912 109.712l-24.496-43.88a14 14 0 1 0-24.448 13.656l41.552 74.4a684.104 684.104 0 0 1-51.072 158.856 14 14 0 0 0 25.336 11.92 746.184 746.184 0 0 0 64.184-236.52l51.096-38.952a13.992 13.992 0 0 0 2.64-19.584z" fill="#BFE9CD" /><path d="M782.448 912.872H241.552A58.28 58.28 0 0 1 184 864l-48-294.808h752L840 864a58.28 58.28 0 0 1-57.552 48.872z" fill="#83E685" /><path d="M108.184 499.768h807.624v69.424H108.184z" fill="#FC642B" /><path d="M512 628.336a14 14 0 0 0-14 14v195.816a14 14 0 0 0 28 0V642.336a14 14 0 0 0-14-14zM392.496 628.384a14 14 0 0 0-12.8 15.096l16 195.816a14 14 0 0 0 13.936 12.856c0.384 0 0.8 0 1.16-0.048a14 14 0 0 0 12.8-15.096l-16-195.816a14.024 14.024 0 0 0-15.096-12.808zM282.792 640.08a14 14 0 1 0-27.632 4.512l32 195.816a14 14 0 1 0 27.632-4.512zM631.504 628.384a13.984 13.984 0 0 0-15.096 12.8l-16 195.816a14 14 0 0 0 12.8 15.096c0.384 0 0.8 0.048 1.16 0.048a14 14 0 0 0 13.936-12.856l16-195.816a14 14 0 0 0-12.8-15.088zM757.288 628.512a13.96 13.96 0 0 0-16.072 11.56l-32 195.816a14 14 0 1 0 27.632 4.512l32-195.816a14 14 0 0 0-11.56-16.072z" fill="#475A61" /></svg>