<?xml version="1.0" standalone="no"?><!DOCTYPE svg PUBLIC "-//W3C//DTD SVG 1.1//EN" "http://www.w3.org/Graphics/SVG/1.1/DTD/svg11.dtd"><svg class="icon" width="200px" height="200.00px" viewBox="0 0 1024 1024" version="1.1" xmlns="http://www.w3.org/2000/svg"><path d="M507.27646279 743.74285888c-133.94737244 0-266.96777344-93.9331057-346.78001404-181.84089636a74.37400841 74.37400841 0 0 1-0.06179857-99.86572289C240.30868935 374.12844825 373.32909035 280.25714112 507.2455635 280.25714112l5.00564576 0.03089927 4.51126075-0.03089927c133.91647315 0 266.99867273 93.87130714 346.87271118 181.71730065 25.70800805 28.51982093 25.73890662 71.43859839 0.06179856 99.89662146-79.90493774 87.93868995-213.20343018 181.87179565-347.73788475 181.87179565l-4.23316932-0.03089928-4.44946289 0.03089928z m8.89892578-46.34857177c119.27032447 0 239.99290466-86.08474708 313.19274879-166.66946411a28.0872345 28.0872345 0 0 0-0.06179786-37.66593957c-73.16894555-80.4611206-193.67523218-166.48406982-312.26577806-166.48406983L511.66412711 326.60571289h-4.04777503C388.59321975 326.60571289 267.99423599 412.62866211 194.82529044 493.15158058a28.0872345 28.0872345 0 0 0 0.06179857 37.66593956C267.99423599 611.30954003 388.59321975 697.39428711 507.77084708 697.39428711l4.07867432-0.03089929 4.32586717 0.03089929zM512.03491569 651.04571533a139.20021034 139.20021034 0 0 1-139.04571534-139.04571533c0-76.66053772 62.38517761-139.04571533 139.04571534-139.04571533s139.04571533 62.38517761 139.04571532 139.04571533-62.38517761 139.04571533-139.04571532 139.04571533zM512.06581497 419.30285644a92.82073999 92.82073999 0 0 0-92.72804284 92.69714356c0 51.10702538 41.59011818 92.69714356 92.69714356 92.69714356s92.69714356-41.59011818 92.69714355-92.69714356S563.14194107 419.30285644 512.06581497 419.30285644z" /></svg>