<?xml version="1.0" standalone="no"?><!DOCTYPE svg PUBLIC "-//W3C//DTD SVG 1.1//EN" "http://www.w3.org/Graphics/SVG/1.1/DTD/svg11.dtd"><svg class="icon" width="200px" height="200.00px" viewBox="0 0 1024 1024" version="1.1" xmlns="http://www.w3.org/2000/svg"><path d="M940.19873923 350.99396003c-6.07569962-62.69017337-30.65466627-96.52077353-91.68783064-96.52077352h-91.68783067v-0.13808409s-31.2070026-225.35322231-187.51818377-225.35322232h-114.6097883c-155.48267668 0-186.68967926 225.35322231-186.68967928 225.35322232h-91.68783066c-59.3761554 0-87.54530818 32.44975935-91.68783064 96.52077353-8.97546534 134.49389616-28.85957319 361.78029565-30.93083444 384.7022533v11.46097884c4.83294288 154.37800401 126.20885123 248.1370959 274.92540787 248.1370959h366.7513226c150.23548155 0 272.71606255-95.69226903 275.06349195-253.10812287v-5.3852792c-1.24275675-15.74158539-18.08901478-258.90765431-30.24041402-385.66884189zM453.72851727 86.70102651h115.57637688c96.10652128 0 127.31352388 158.65861057 127.31352389 158.65861056H327.24349787c0-0.13808409 31.34508668-158.65861057 126.4850194-158.65861056z m239.99013503 843.96991104H327.51966604c-117.92380628 0-213.61607532-73.73689995-213.61607532-196.76981728 0 0 23.61237808-294.11909531 30.93083443-386.91159864 1.38084082-16.84625804 14.22266047-30.3784981 30.5165822-31.897423h671.64097632c16.01775355 2.07126124 28.44532095 15.18924905 30.5165822 31.897423 8.28504494 86.99297185 30.10232993 386.91159861 30.10232994 386.91159864-0.13808409 123.03291733-95.96843719 196.76981728-213.89224351 196.76981728z" fill="#14C6FA" /><path d="M661.54506114 515.31401797h-29.96424588c-15.87966947-1.38084082-28.58340503-14.7749968-29.96424584-31.62125484v-31.62125484c-2.76168163-33.554432-28.0310687-60.20465988-59.92849173-63.24250971H481.6215019c-32.31167525 1.93317715-57.99531457 29.13574137-59.92849173 63.24250971v31.62125484c-1.51892491 16.70817396-14.08457639 29.96424587-29.96424587 31.62125484h-29.96424585c-32.31167525 1.93317715-58.13339866 28.99765728-59.92849172 63.2425097V641.79903737c3.45210207 33.27826384 28.44532095 59.51423947 59.92849172 63.24250969h29.96424585c15.74158539 1.79509307 28.30723687 14.91308089 29.96424587 31.62125486v31.62125483c3.0378498 33.554432 28.30723687 60.20465988 60.0665758 63.2425097h59.92849172c32.31167525-1.93317715 57.99531457-29.13574137 59.92849173-63.2425097v-31.62125483c0-17.39859437 13.39415599-31.62125485 29.96424584-31.62125486h29.96424588c32.03550709-2.48551348 57.58106231-29.41190953 59.92849172-63.24250969v-63.2425097c-2.3474294-33.83060016-27.89298463-60.61891214-59.92849172-63.2425097z m-32.0355071 125.6565149h-29.54999361c-31.48317076 2.76168163-56.47638966 28.99765728-59.09998724 62.13783705V734.31537251c-1.38084082 16.43200579-13.80840823 29.54999362-29.54999361 31.2070026-15.87966947-0.96658859-28.58340503-14.36074457-29.54999361-31.2070026v-31.20700259c-3.0378498-32.86401158-27.89298463-58.96190314-59.09998722-62.13783705H393.24768922c-16.29392172 0-29.54999362-13.9464923-29.54999361-31.2070026 0.96658859-16.70817396 13.67032415-30.10232993 29.54999361-31.2070026h29.54999361c31.75933893-2.3474294 56.89064192-28.85957319 59.09998724-62.13783704v-31.2070026c0.41425225-16.98434213 13.39415599-30.65466627 29.5499936-31.2070026 15.6035013 1.79509307 27.89298463 14.63691274 29.54999361 31.2070026v31.2070026c2.07126124 33.41634791 27.3406483 59.92849171 59.09998723 62.13783704h29.54999362c15.74158539 1.24275675 28.44532095 14.49882864 29.5499936 31.2070026-0.55233633 17.12242621-13.53224006 30.93083443-29.68807769 31.2070026z" fill="#14C6FA" /></svg>