<?xml version="1.0" standalone="no"?><!DOCTYPE svg PUBLIC "-//W3C//DTD SVG 1.1//EN" "http://www.w3.org/Graphics/SVG/1.1/DTD/svg11.dtd"><svg class="icon" width="200px" height="177.62px" viewBox="0 0 1153 1024" version="1.1" xmlns="http://www.w3.org/2000/svg"><path d="M579.73071289 257.68847657a25.06530762 25.06530762 0 0 0-32.92602539-0.04943849l-348.78845215 301.52526855a25.06530762 25.06530762 0 0 0-8.70117187 18.98437501V820.00170898c0 41.52832031 33.81591797 75.34423828 75.34423827 75.34423829h593.55834961c41.57775879 0 75.34423828-33.81591797 75.34423828-75.34423829V578.14868164a25.21362305 25.21362305 0 0 0-8.55285643-18.93493653L579.73071289 257.63903808z m303.79943848 562.21435546a25.06530762 25.06530762 0 0 1-25.21362305 25.16418458H264.80761719a25.06530762 25.06530762 0 0 1-25.1147461-25.16418458V589.6184082l323.42651368-279.72290039 320.36132812 279.67346192v230.38330077h0.09887696z m115.09277343-331.23779297a25.21362305 25.21362305 0 0 1-33.1237793 38.01818848l-402.0336914-351.0131836L157.47668457 526.7821045a25.21362305 25.21362305 0 0 1-32.87658691-38.06762696L547.10131836 123.36413574a25.11474609 25.11474609 0 0 1 33.02490234 0.14831543l418.44726563 365.25146485z m-500.56457519 38.66088867a35.10131836 35.10131836 0 0 0-23.48327637-12.55737304c-18.88549805 2.17529297-28.82263184 12.06298828-29.86083984 29.86083984-0.98876953 7.31689453 1.03820801 13.10119629 6.27868653 17.3034668l50.22949218 70.64758301H468.24694823c-11.51916505 2.07641602-17.79785156 7.8112793-18.88549804 17.20458983 0 11.51916505 6.328125 17.30346679 18.88549804 17.3034668h58.13964845v26.69677736H468.24694823c-11.51916505 2.1258545-17.79785156 7.8112793-18.88549804 17.30346678 0 11.46972656 6.328125 17.20458985 18.88549804 17.20458986h58.13964845v48.6968994c0 17.84729004 9.98657227 26.74621583 29.86083985 26.74621583 18.78662109 0 28.82263184-8.89892578 29.81140136-26.74621583V728.29333497h58.13964844c11.51916505 0 17.79785156-5.73486327 18.83605957-17.25402834-1.97753906-9.39331055-8.40454102-15.12817383-18.83605957-17.30346679h-58.18908691v-26.59790039h58.13964844c11.46972656 0 17.79785156-5.83374023 18.83605956-17.30346679-1.97753906-9.39331055-8.30566406-15.17761231-18.78662109-17.3034668h-32.97546386l50.1800537-70.64758301a23.23608398 23.23608398 0 0 0 6.37756348-17.30346679c-2.07641602-17.74841309-12.01354981-27.68554688-29.81140137-29.81140137a31.39343262 31.39343262 0 0 0-23.68103027 12.55737304L556.24743653 610.53088379 498.05834961 527.32592773z" /></svg>